<svg width="1024" height="1024" xmlns="http://www.w3.org/2000/svg" version="1.1">
 <defs>
  <linearGradient spreadMethod="pad" y2="0" x2="1" y1="0" x1="0" id="svg_338">
   <stop offset="0" stop-opacity="0.99219" stop-color="#82d7ff"/>
   <stop offset="0.96875" stop-opacity="0.99219" stop-color="#c170ff"/>
  </linearGradient>
 </defs>
 <g>
  <title>Layer 1</title>
  <path id="svg_1" fill="url(#svg_338)" d="m395.26172,697.44141c7.57056,7.07379 12.52072,16.77478 13.20703,27.17188c0.03387,1.5661 0.04382,3.13281 0.03125,4.69922c-0.005,0.82666 -0.00998,1.65338 -0.01514,2.50513c-0.29553,10.44653 -4.24765,19.60132 -11.48486,27.18237c-9.68967,8.77112 -20.13873,13.5777 -33.32813,13.25c-11.74121,-1.09857 -22.51566,-5.6048 -30.67188,-14.25c-8.04584,-10.18506 -10.99637,-21.06561 -10,-34c1.88568,-12.09723 7.26575,-22.38898 17,-30c18.46497,-11.47687 38.24442,-10.00031 55.26172,3.44141z"/>
  <path id="svg_2" fill="url(#svg_338)" d="m320.41797,613.66406c6.74286,6.10022 11.67831,13.39807 13.58203,22.33594c0.1521,0.69354 0.30423,1.38702 0.46094,2.10156c1.84998,11.30542 -1.23065,22.44958 -7.46094,31.89844c-7.84167,9.86487 -17.06345,15.46747 -29.5,17.5c-12.15952,1.20477 -22.32336,-1.11218 -32.13281,-8.47656c-9.72365,-8.21429 -14.86276,-17.32263 -16.36719,-30.02344c-0.3344,-12.67957 2.49696,-23.0921 10.80078,-32.77734c16.82254,-17.00183 42.19778,-16.73547 60.61719,-2.55859z"/>
  <path id="svg_3" fill="url(#svg_338)" d="m276,504c9.29736,8.37195 15.04901,18.51874 16.18359,31.02344c0.38705,11.52094 -3.99515,21.53442 -11.37109,30.22656c-8.52753,8.97858 -18.84491,13.69727 -31.25,14.125c-11.88554,-0.42267 -21.89828,-4.18152 -30.66406,-12.32813c-7.94614,-8.58862 -11.73651,-19.41919 -12.27344,-31.10938c1.30356,-13.68732 6.36472,-24.42517 17.05469,-33.28516c15.83261,-11.27475 36.79565,-9.70813 52.32031,1.34766z"/>
  <path id="svg_4" fill="url(#svg_338)" d="m277.20313,394.56641c7.30554,6.00894 13.14633,13.98056 14.79688,23.43359c1.04654,12.36459 -0.21609,23.23856 -8.30469,33.15625c-7.92596,8.61993 -16.6232,13.99323 -28.44531,15.10156c-9.94887,0.38861 -19.34853,-2.01013 -27.25,-8.25781c-0.57234,-0.43054 -1.14468,-0.86108 -1.73438,-1.30469c-8.54427,-6.7551 -12.6113,-15.91476 -14.07813,-26.57031c-0.85085,-11.4332 2.9299,-22.2644 9.98047,-31.20703c15.22531,-15.93951 37.47406,-16.83737 55.03516,-4.35156z"/>
  <path id="svg_5" fill="url(#svg_338)" d="m323.82031,298.18359c2.20105,1.8342 3.14676,3.17606 4.17969,5.81641c0.66,0 1.32001,0 2,0c1.4375,1.97656 1.4375,1.97656 3,4.625c0.51563,0.85852 1.03125,1.71704 1.5625,2.60156c2.92792,5.64902 3.82663,10.69846 3.8125,17.02344c-0.00162,0.75 -0.0032,1.49997 -0.00488,2.27271c-0.21921,9.95706 -4.03293,17.80649 -10.80762,25.10229c-10.01837,9.28534 -18.78229,12.01434 -32.41797,11.70703c-9.68277,-0.53928 -17.11053,-5.25937 -23.94922,-11.86719c-8.00098,-8.98331 -10.71002,-17.98163 -10.50781,-29.89844c0.90408,-10.31796 6.05005,-19.91995 13.6875,-26.87891c15.21021,-12.04141 33.65454,-10.73358 49.44531,-0.50391z"/>
  <path id="svg_6" fill="url(#svg_338)" d="m485.35156,749.78906c8.50241,7.0979 13.82623,15.92932 14.91797,26.92578c0.39844,10.52209 -2.81149,19.96448 -9.26953,28.28516c-8.47433,8.48901 -16.9957,12.34399 -28.875,12.5625c-7.88818,-0.06348 -14.21902,-1.58441 -21.125,-5.5625c-0.74637,-0.41119 -1.49274,-0.82245 -2.26172,-1.24609c-7.92465,-5.08685 -12.18036,-13.93433 -14.73828,-22.75391c-2.3522,-11.36157 -0.09744,-20.23853 6,-30c5.41672,-8.0238 13.24094,-13.01257 22.625,-15.375c11.95044,-2.0553 22.65054,0.32159 32.72656,7.16406z"/>
  <path id="svg_7" fill="url(#svg_338)" d="m388.97656,226.73828c9.0314,5.63155 14.73721,11.14703 17.51953,21.65625c1.67059,8.63791 0.64719,17.10229 -3.75,24.80078c-4.86597,6.97412 -11.57089,12.25604 -19.74609,14.80469c-2.80582,0.42081 -5.54117,0.47797 -8.375,0.4375c-1.12427,-0.01245 -1.12427,-0.01245 -2.27124,-0.02515c-8.95471,-0.27325 -15.03064,-3.32733 -21.5647,-9.43188c-5.78287,-6.40155 -8.7207,-14.08618 -8.82031,-22.67578c0.57852,-10.38445 4.4136,-18.22784 12.03125,-25.30469c9.99152,-7.61443 23.47318,-10.35551 34.97656,-4.26172z"/>
  <path id="svg_8" fill="url(#svg_338)" d="m483,198c6.73154,7.31587 9.85266,15.12856 10,25c-0.76422,8.57632 -4.59973,14.99033 -10.8125,20.8125c-6.30948,5.15588 -12.18527,6.80167 -20.32031,6.53125c-8.71152,-1.04443 -16.20648,-4.56633 -21.86719,-11.34375c-4.38959,-7.00581 -6.67139,-13.67467 -6,-22c2.35303,-9.48303 6.79657,-16.33917 14.875,-21.875c11.56467,-6.59566 23.42325,-4.52705 34.125,2.875z"/>
  <path id="svg_9" fill="url(#svg_338)" d="m581,768c6.39545,3.79138 9.88379,9.95581 12.375,16.75c1.6731,8.2843 0.38062,16.58264 -3.73438,23.92578c-4.35437,6.1687 -9.88031,10.95538 -17.25781,12.92188c-8.46216,1.42889 -14.89954,0.59882 -22.38281,-3.59766c-1.05188,-0.53625 -2.10376,-1.07251 -3.1875,-1.625c-4.73932,-4.00214 -7.85699,-9.50854 -9.8125,-15.375c-0.7561,-9.5163 -1.03424,-18.05707 5,-26c10.65338,-12.2124 24.81018,-13.82629 39,-7z"/>
  <path id="svg_10" fill="url(#svg_338)" d="m370,498c6.13608,3.8815 9.75638,9.12021 12,16c1.4498,8.91504 -1.13525,16.2254 -5.6875,23.8125c-6.30545,5.9646 -13.38953,8.51862 -21.94141,8.40625c-6.07471,-0.56042 -11.75983,-3.3092 -16.37109,-7.21875c-5.42239,-6.69226 -7.66571,-13.39008 -7,-22c1.47104,-6.63678 3.65298,-11.61273 9,-16c0.47308,-0.50146 0.94617,-1.0029 1.43359,-1.51953c7.28168,-6.8822 20.33481,-6.0769 28.56641,-1.48047z"/>
  <path id="svg_11" fill="url(#svg_338)" d="m394,565c5.62823,3.66333 9.59589,8.41321 11.58594,14.91406c1.37701,6.93707 0.92523,13.88538 -2.58594,20.08594c-4.86349,7.02509 -10.62128,11.21411 -19,13c-7.31116,0.57343 -13.21304,-1.12415 -19.25,-5.1875c-6.55087,-6.69977 -9.43146,-13.34222 -9.75,-22.8125c0.81757,-8.00055 4.89545,-13.9198 11,-19c9.00137,-5.36902 18.62012,-5.56134 28,-1z"/>
  <path id="svg_12" fill="url(#svg_338)" d="m371.3125,425.125c5.43497,3.86139 9.61774,8.47842 11.6875,14.875c1.06827,8.5798 0.28265,15.97763 -5,23c-5.39185,5.22879 -11.09772,8.26523 -18.6875,8.4375c-7.01782,-0.12964 -12.67612,-2.177 -17.9375,-6.89453c-4.75806,-5.36697 -7.36188,-11.35889 -7.375,-18.54297c0.69034,-7.16684 3.20456,-13.8584 8.85938,-18.53906c8.65219,-5.73459 19.09619,-7.76727 28.45313,-2.33594z"/>
  <path id="svg_13" fill="url(#svg_338)" d="m445.95313,624.11328c4.52521,4.17114 8.66074,9.77283 9.25,16.05078c0.1463,7.68024 -1.09735,13.61536 -5.32813,20.08594c-5.35028,5.11768 -11.3313,8.61768 -18.875,8.75c-7.40625,-0.58472 -12.67334,-2.79175 -18,-8c-5.58493,-6.55743 -6.42789,-11.90466 -6.33203,-20.34766c0.58102,-6.39136 2.61526,-11.17316 7.38672,-15.52734c10.05139,-7.23425 21.5975,-8.55481 31.89844,-1.01172z"/>
  <path id="svg_14" fill="url(#svg_338)" d="m399.3125,357.4375c5.90564,3.53586 10.57086,8.86398 13.1875,15.1875c1.26227,8.52042 -0.17725,14.82919 -4.59766,22.20703c-3.7695,5.0473 -9.10544,7.23566 -14.90234,9.16797c-7.42355,0.51196 -14.26535,-0.63467 -20.3125,-5.25c-5.61328,-5.74384 -8.07684,-11.78717 -8.6875,-19.75c0.41064,-8.26779 4.65402,-13.89883 10.5625,-19.375c7.09366,-4.7291 16.83966,-5.62473 24.75,-2.1875z"/>
  <path id="svg_15" fill="url(#svg_338)" d="m567.24609,192.54297c4.96924,4.12814 8.36646,8.76347 9.05469,15.32422c0.03479,8.93123 -1.63171,14.93533 -7.69141,21.625c-4.5838,4.29456 -9.78351,5.23077 -15.79688,5.82031c-7.04987,-0.57787 -12.84045,-2.79979 -17.75,-8c-4.24951,-5.42494 -6.46509,-10.93425 -6,-17.875c1.1781,-7.11806 4.17432,-12.71573 9.89453,-17.17969c9.07709,-5.58858 19.50684,-5.87128 28.28906,0.28516z"/>
  <path id="svg_16" fill="url(#svg_338)" d="m458.3125,312.1875c5.32391,5.57156 6.94284,10.05042 7.25,17.8125c-0.24072,7.51013 -2.10828,11.56088 -7.34766,16.77734c-5.66025,5.10742 -10.21738,5.6474 -17.78516,5.55469c-6.29913,-0.60983 -11.18692,-2.71854 -15.34375,-7.5625c-4.71582,-6.85025 -5.86853,-12.50143 -5.08594,-20.76953c1.80914,-6.6489 6.40479,-11.20325 12,-15c9.32837,-3.76407 18.08887,-2.24319 26.3125,3.1875z"/>
  <path id="svg_17" fill="url(#svg_338)" d="m511.14063,661.35156c4.4187,3.91742 7.24414,8.495 8.85938,14.14844c0,7.04346 -1.3009,13.0589 -6,18.5c-6.32324,4.80096 -11.96286,6.82935 -20,6c-6.01859,-1.97162 -11.16589,-4.65546 -14.26172,-10.30078c-2.8349,-6.55505 -3.81375,-11.93774 -1.48828,-18.82422c2.75131,-6.59808 6.45435,-9.78241 12.75,-12.875c6.90833,-2.36334 14.25986,-0.71796 20.14063,3.35156z"/>
  <path id="svg_18" fill="url(#svg_338)" d="m673.375,762.3125c5.13361,4.98053 7.18982,8.89984 7.67969,16.06641c-0.15338,7.35168 -2.93561,12.18414 -8.14063,17.21094c-6.22089,4.58313 -13.51538,4.20526 -20.91406,3.41016c-5.6969,-1.90192 -9.21991,-5.71967 -12.09375,-10.89453c-2.63684,-6.1261 -2.28497,-11.94116 0.09375,-18.10547c3.05243,-5.47333 7.06158,-9.72943 13,-12c7.81543,-1.83893 14.20721,-0.88202 20.375,4.3125z"/>
  <path id="svg_19" fill="url(#svg_338)" d="m506,287c5.41983,2.56729 8.6958,6.32953 11.3125,11.6875c1.23999,5.97455 0.75348,11.25668 -2.0625,16.6875c-4.48529,5.23282 -8.68643,8.29504 -15.625,8.9375c-6.17584,-0.53241 -11.24329,-2.93079 -15.625,-7.3125c-3.00784,-5.28964 -3.89368,-10.04224 -3,-16c1.61313,-5.55978 4.7579,-9.65997 9.51953,-12.92969c5.01498,-2.16394 10.16483,-1.88116 15.48047,-1.07031z"/>
  <path id="svg_20" fill="url(#svg_338)" d="m748.3125,719.125c3.77704,2.63513 6.60376,5.70752 8.6875,9.875c0.73303,7.13818 0.31403,13.09949 -4,19c-5.0957,4.84717 -9.40405,5.35822 -16.20703,5.27734c-4.31268,-0.42822 -6.35669,-1.61243 -9.79297,-4.27734c-3.73993,-4.82251 -5.37927,-8.64996 -5.27734,-14.8125c0.67828,-5.34967 3.30664,-9.62488 7.33984,-13.125c5.81909,-4.08575 12.61395,-4.19122 19.25,-1.9375z"/>
  <path id="svg_21" fill="url(#svg_338)" d="m643.8125,216.0625c4.7561,3.83807 6.88959,8.51157 7.625,14.5c-0.76746,6.03018 -3.06519,11.18335 -7.4375,15.4375c-5.56665,3.26407 -10.80872,3.53297 -17,2c-4.95435,-2.13936 -8.58887,-6.17773 -11,-11c-0.72546,-7.1716 -0.38318,-12.19524 4,-18c6.73114,-6.554 15.73553,-8.06795 23.8125,-2.9375z"/>
  <path id="svg_22" fill="url(#svg_338)" d="m569.1875,285.125c4.23303,2.82202 7.17157,5.9523 8.8125,10.875c0.81915,5.93314 0.09778,10.34357 -3.38281,15.26953c-3.70612,3.96576 -7.82916,5.47504 -13.11719,6.23047c-6.02161,-0.86023 -10.12335,-2.77039 -13.9375,-7.5625c-2.42096,-4.55139 -2.98376,-7.79843 -2.5625,-12.9375c1.89905,-5.81647 4.50635,-9.07782 10,-12c4.98077,-1.66025 9.30273,-1.59903 14.1875,0.125z"/>
  <path id="svg_23" fill="url(#svg_338)" d="m461.75,401.0625c4.58798,2.73514 6.4006,5.95581 7.81641,10.92578c0.93698,5.07938 0.01419,8.45264 -2.56641,13.01172c-4.0448,4.78989 -7.21542,6.74686 -13.4375,7.3125c-5.07275,-0.44498 -8.12393,-1.95386 -11.8125,-5.4375c-2.68512,-4.41125 -4.18359,-8.8176 -3.44531,-14.02344c1.69528,-5.46262 5.08008,-8.63757 9.69531,-11.85156c4.40622,-2.20313 9.21524,-1.22235 13.75,0.0625z"/>
  <path id="svg_24" fill="url(#svg_338)" d="m578,676c4.23273,1.81403 6.13214,3.6803 7.9375,7.8125c1.58215,5.03668 1.03766,9.09088 -1.1875,13.875c-2.16693,2.86346 -3.58246,4.53076 -6.75,6.3125c-4.84192,0.65625 -9.29791,0.57941 -13.9375,-1c-3.99982,-3.8786 -5.83636,-8.12622 -6.5,-13.625c0.67114,-5.17731 2.14954,-8.15143 5.9375,-11.75c4.91724,-2.28302 9.16718,-2.38684 14.5,-1.625z"/>
  <path id="svg_25" fill="url(#svg_338)" d="m495.1875,370.125c4.45035,2.96689 6.32898,6.13434 7.75,11.25c0.0773,4.48386 -0.63791,7.76437 -2.9375,11.625c-4.16913,3.78131 -8.42868,5.26797 -14,5c-5.15387,-1.71796 -7.98703,-4.52359 -11,-9c-1.22714,-4.21829 -1.17944,-6.42181 0.125,-10.625c4.64139,-8.35449 10.74747,-11.53766 20.0625,-8.25z"/>
  <path id="svg_26" fill="url(#svg_338)" d="m705.89453,255.72656c4.00122,2.0722 6.51233,4.05621 8.10547,8.27344c0.70276,4.66455 0.5144,8.65018 -1.6875,12.875c-2.91022,3.93271 -4.72626,5.69397 -9.60938,6.50781c-4.77814,0.33301 -7.92175,-0.00092 -11.70313,-3.07031c-2.55267,-2.58276 -4.30646,-4.6713 -5,-8.3125c0.18591,-5.8566 1.07245,-9.43552 5,-14c4.73608,-3.15738 9.40338,-4.37933 14.89453,-2.27344z"/>
  <path id="svg_27" fill="url(#svg_338)" d="m533,354c3.70911,1.78586 5.54022,3.36224 7.9375,6.6875c1.41937,4.42517 1.34094,7.85403 0.0625,12.3125c-3.15796,5.32901 -6.48181,6.92957 -12.20703,8.55469c-0.59167,0.14694 -1.18335,0.29391 -1.79297,0.44531c0,-0.66 0,-1.32001 0,-2c-0.72186,-0.08249 -1.44373,-0.16501 -2.1875,-0.25c-4.25897,-1.13574 -6.84589,-3.21216 -9.1875,-6.9375c-1.18781,-5.34525 -0.69702,-10.07507 2.1875,-14.75c4.5979,-4.33521 9.05811,-4.91379 15.1875,-4.0625z"/>
  <path id="svg_28" fill="url(#svg_338)" d="m626.75,301.38281c3.638,3.90036 5.34973,7.13297 5.25,12.61719c-1.63861,4.64276 -3.66956,7.60443 -8,10c-4.12836,0.73871 -8.04144,0.90518 -11.91016,-0.88281c-2.84894,-2.11395 -4.16266,-4.28104 -5.58984,-7.49219c-0.59454,-4.31036 -0.26782,-6.6474 1.5,-10.625c2.26923,-2.57446 4.78784,-4.45258 7.9375,-5.875c4.06793,-0.24655 7.47504,-0.37936 10.8125,2.25781z"/>
  <path id="svg_29" fill="url(#svg_338)" d="m653,665c2.92249,1.81842 4.58459,3.32025 6.375,6.25c1.01703,4.47498 0.90955,8.59827 -1.45703,12.5625c-2.14215,2.69226 -3.62549,4.09003 -6.91797,5.1875c-4.19171,0.39545 -6.48077,0.26959 -10.25,-1.6875c-2.88672,-2.42743 -4.4184,-3.78766 -5.75,-7.3125c-0.29126,-4.84564 0.27228,-8.04993 3.25,-11.9375c5.15503,-3.86627 8.38208,-4.65448 14.75,-3.0625z"/>
  <path id="svg_30" fill="url(#svg_338)" d="m580,355c2.875,2.5 2.875,2.5 5,5c0.33002,0.32999 0.65997,0.66 1,1c0.40259,4.75027 0.46649,7.10031 -1.75,11.375c-3.00299,3.50348 -4.59546,4.40918 -9.125,5c-4.96667,-0.59601 -7.89734,-2.90973 -11.0625,-6.6875c-1.45703,-3.68539 -1.08154,-5.88318 -0.0625,-9.6875c1.83862,-2.95493 3.32751,-4.60013 6.3125,-6.375c3.63757,-0.84595 6.07788,-0.59186 9.6875,0.375z"/>
  <path id="svg_31" fill="url(#svg_338)" d="m675,332c2.31812,1.89111 3.66913,3.33829 5,6c0.37512,4.97067 0.15881,8.05151 -3,12c-3.21857,2.33069 -6.10492,2.46741 -10,2c-5.57898,-3.1579 -5.57898,-3.1579 -7,-6c-0.42072,-3.05942 -0.47998,-5.94598 0,-9c4.44635,-5.76828 8.021,-6.59171 15,-5z"/>
  <path id="svg_32" fill="url(#svg_338)" d="m615,368c2.77429,1.26105 4.48315,2.31091 6.3125,4.75c1.01569,3.32397 1.10547,5.78687 0.6875,9.25c-2.44769,4.00534 -3.92603,5.66803 -8.4375,7.0625c-4.06482,-0.07132 -6.17395,-0.85602 -9.5625,-3.0625c-2.66833,-4.00256 -2.83405,-7.29312 -2,-12c3.95166,-4.99161 6.69824,-6.49426 13,-6z"/>
  <path id="svg_33" fill="url(#svg_338)" d="m758,317c2.66919,2.14835 3.77942,3.55634 4.30078,6.96875c0.13214,3.72849 0.16174,7.14047 -2.30078,10.03125c-3.92102,2.30649 -6.14087,3.10193 -10.6875,2.5625c-4.12994,-1.94809 -5.45972,-3.39371 -7.3125,-7.5625c-0.33264,-2.93085 -0.05084,-5.24292 1,-8c4.36322,-5.34497 8.43903,-6.22849 15,-4z"/>
  <path id="svg_34" fill="url(#svg_338)" d="m717,629c2.93201,2.08325 3.82318,3.45776 4.9375,6.875c0.0799,3.99536 -0.58514,5.8905 -2.9375,9.125c-4.29584,2.06531 -6.24133,2.23633 -10.8125,0.8125c-3.1875,-1.8125 -3.1875,-1.8125 -5.1875,-4.8125c-0.4375,-3.375 -0.4375,-3.375 0,-7c4.5708,-5.53308 7.00427,-6.56799 14,-5z"/>
  <path id="svg_35" fill="url(#svg_338)" d="m787,380c2.74707,2.39258 2.97156,3.80441 3.5,7.4375c-0.5,3.5625 -0.5,3.5625 -2.5625,6.5c-3.69702,2.59576 -5.50397,2.77502 -9.9375,2.0625c-2.9375,-1.4375 -2.9375,-1.4375 -5,-4c-0.65271,-3.12036 -0.63147,-5.87714 0,-9c4.05963,-5.59949 7.85626,-5.30389 14,-3z"/>
  <path id="svg_36" fill="url(#svg_338)" d="m766,576c2.48895,2.89038 3.02795,4.30066 2.875,8.125c-0.90283,2.96655 -1.33691,4.15271 -3.875,5.875c-3.47412,1.31451 -4.75421,1.09924 -8.25,-0.3125c-2.75,-1.6875 -2.75,-1.6875 -3.75,-3.6875c-0.45453,-6.13635 -0.45453,-6.13635 1.25,-9.375c3.8869,-3.60925 7.12445,-2.79016 11.75,-0.625z"/>
  <path id="svg_37" fill="url(#svg_338)" d="m789.5625,444.875c4.07391,1.33328 5.42615,2.3537 7.4375,6.125c0,3.63077 -0.58826,5.42047 -2.6875,8.375c-2.3125,1.625 -2.3125,1.625 -5.25,2.1875c-4.14825,-0.76193 -5.57648,-2.19904 -8.0625,-5.5625c-0.625,-3 -0.625,-3 0,-6c2.66632,-3.79749 3.86707,-4.96024 8.5625,-5.125z"/>
  <path id="svg_38" fill="url(#svg_338)" d="m707,373c2.375,1.125 2.375,1.125 4,3c1.19305,3.65878 1.32666,5.29999 -0.3125,8.8125c-1.6875,2.1875 -1.6875,2.1875 -3.6875,3.1875c-3.83612,0.35519 -6.1463,0.54724 -9.4375,-1.5625c-2.16644,-3.37967 -2.12537,-5.49734 -1.5625,-9.4375c2.90088,-4.52536 5.86908,-4.64136 11,-4z"/>
  <path id="svg_39" fill="url(#svg_338)" d="m790,511c2.98499,2.09753 3.85229,3.49353 4.875,7c0.13214,3.17181 0.01385,4.48151 -1.875,7c-2.56262,1.922 -3.83197,2.01031 -7.0625,1.8125c-3.04211,-0.84143 -4.1875,-1.23352 -5.9375,-3.8125c-1.31451,-3.47412 -1.09924,-4.75421 0.3125,-8.25c2.60791,-4.24997 4.87189,-4.23157 9.6875,-3.75z"/>
  <path id="svg_40" fill="url(#svg_338)" d="m643.5,394.75c3.5,1.25 3.5,1.25 5.5,4.25c0.4375,3.4375 0.4375,3.4375 0,7c-2.0625,2.5 -2.0625,2.5 -5,4c-3.81378,0 -6.02423,-0.15015 -8.9375,-2.6875c-1.4007,-3.04852 -1.54675,-4.99176 -1.0625,-8.3125c3.06116,-3.77542 4.6283,-5.29395 9.5,-4.25z"/>
  <path id="svg_41" fill="url(#svg_338)" d="m562,283.875c0.6806,-0.00259 1.36127,-0.00516 2.0625,-0.00781c1.9375,0.13281 1.9375,0.13281 4.9375,1.13281c0.33002,0.98999 0.65997,1.98001 1,3c-0.94104,-0.05801 -1.88202,-0.11603 -2.85156,-0.17578c-7.9917,-0.6402 -7.9917,-0.6402 -14.96094,2.55078c-3.58258,4.29913 -3.57568,7.36682 -3.54688,12.85156c0.55646,4.29459 2.1911,5.90689 5.35938,8.77344c4.00134,2.00067 8.66272,1.64624 13,1c3.04968,-1.63187 5.51379,-3.60641 8,-6c-0.125,2.25 -0.125,2.25 -1,5c-5.27686,4.12973 -9.31799,5.5477 -16,5c-5.81647,-1.89905 -9.07782,-4.50632 -12,-10c-1.69177,-5.07538 -1.56372,-9.31964 0.625,-14.1875c3.25452,-5.97629 8.62817,-8.96307 15.375,-8.9375z"/>
  <path id="svg_42" fill="url(#svg_338)" d="m516,671c0.98999,0.33002 1.97998,0.65997 3,1c1.50464,7.07184 0.61621,12.76758 -2.625,19.25c-3.84021,4.44653 -8.54355,7.63867 -14.375,8.75c-7.40561,0.4856 -12.08417,-0.92529 -18.25,-5.3125c-3.9715,-3.88123 -5.89545,-7.18774 -6,-12.75c0.19736,-3.10822 0.49707,-5.92578 1.25,-8.9375c0.33002,0 0.66,0 1,0c0.02579,0.70123 0.05157,1.40253 0.07813,2.125c0.37708,6.3075 1.07919,11.69629 4.92188,16.875c2.47754,1.97296 2.47754,1.97296 5,3c0.66,0.33002 1.32001,0.65997 2,1c6.45374,0.50238 12.55942,0.9444 18,-3c4.76593,-5.0307 6.27606,-9.44012 6.125,-16.3125c-0.01807,-1.0686 -0.03607,-2.13727 -0.05469,-3.23828c-0.02319,-0.80823 -0.04639,-1.61652 -0.07031,-2.44922z"/>
  <path id="svg_43" fill="url(#svg_338)" d="m497,784c0.32999,0 0.66,0 1,0c0.59845,7.54047 -0.76398,11.78168 -5,18c-1.05188,1.54688 -1.05188,1.54688 -2.125,3.125c-5.26385,5.98242 -13.91852,11.28674 -21.90698,12.07568c-2.28488,0.10345 -4.55591,0.12134 -6.84302,0.11182c-1.14661,0.02417 -1.14661,0.02417 -2.31641,0.04883c-5.56033,0.0047 -9.77151,-0.95551 -14.80859,-3.36133c-0.33002,-0.98999 -0.66,-1.97998 -1,-3c0.72702,0.21655 1.45407,0.43311 2.20313,0.65625c11.68457,3.23572 22.28741,4.02393 33.14063,-1.94531c10.53952,-6.56964 14.02271,-14.11896 17.65625,-25.71094z"/>
  <path id="svg_44" fill="url(#svg_338)" d="m622,300c0.33002,0.66 0.65997,1.32001 1,2c-1.54688,0.06189 -1.54688,0.06189 -3.125,0.125c-4.16974,0.94156 -6.02075,1.87958 -8.83594,4.98828c-1.67749,3.04599 -1.36438,5.55737 -0.70703,8.89453c0.59363,2.12192 0.59363,2.12192 2.23047,4.05469c3.53772,1.36066 6.75116,1.70398 10.4375,0.9375c3.14661,-1.89648 3.14661,-1.89648 5,-5c0.72186,-5.05322 -0.06122,-7.88574 -3,-12c-0.33002,-0.66 -0.65997,-1.32001 -1,-2c2.57214,0.35477 3.79675,0.80429 5.6875,2.625c1.77979,3.22052 2.18573,5.69882 2.3125,9.375c-1.63861,4.64276 -3.66956,7.60446 -8,10c-4.12836,0.73868 -8.04144,0.90518 -11.91016,-0.88281c-2.84894,-2.11395 -4.16266,-4.28104 -5.58984,-7.49219c-0.59454,-4.31036 -0.26782,-6.64737 1.5,-10.625c3.91876,-4.44589 8.17023,-7.2113 14,-5z"/>
  <path id="svg_45" fill="url(#svg_338)" d="m456.83594,311.20703c2.55084,2.05933 4.341,4.05838 6.16406,6.79297c0.125,2.6875 0.125,2.6875 0,5c-0.55688,-0.72189 -1.11374,-1.44376 -1.6875,-2.1875c-5.94284,-7.30371 -5.94284,-7.30371 -14.51953,-10.14844c-9.63422,-0.14929 -9.63422,-0.14929 -17.79297,4.33594c-3.8378,4.04523 -5.76761,7.62976 -6.3125,13.1875c0.39923,4.87048 1.75345,9.20026 3.3125,13.8125c-2.76819,-1.01501 -3.81317,-1.65073 -5.22656,-4.29297c-1.6843,-5.89499 -1.77216,-12.28513 0.72656,-17.95703c3.30148,-5.66968 8.00818,-9.74454 14.0625,-12.1875c7.6452,-1.25104 14.67261,-0.69516 21.27344,3.64453z"/>
  <path id="svg_46" fill="url(#svg_338)" d="m388.6875,355.6875c1.13824,-0.01675 2.27649,-0.03351 3.44922,-0.05078c1.41733,0.17981 1.41733,0.17981 2.86328,0.36328c0.66,0.98999 1.32001,1.98001 2,3c-0.84561,-0.02319 -1.69125,-0.04642 -2.5625,-0.07031c-6.54144,-0.10406 -12.18607,0.10907 -18.4375,2.07031c0,0.66 0,1.32001 0,2c-1.14468,1.11374 -1.14468,1.11374 -2.3125,2.25c-4.32687,4.42749 -5.87045,7.9819 -6.125,14.125c0.27512,8.82785 4.57175,14.36819 10.4375,20.625c-2.67776,-0.07877 -4.47195,-0.56964 -6.5625,-2.27344c-4.94498,-5.26639 -7.13904,-11.09332 -7.60156,-18.27344c0.30167,-7.47208 3.58694,-12.76816 8.71875,-18.05469c5.03409,-4.46024 9.50485,-5.68826 16.13281,-5.71094z"/>
  <path id="svg_47" fill="url(#svg_338)" d="m299,606c-0.9668,0.03735 -1.93359,0.07477 -2.92969,0.11328c-11.14072,0.56256 -19.86575,1.81586 -29.0625,8.48438c-2.00781,1.40234 -2.00781,1.40234 -4.14063,2.33594c-2.36496,1.35071 -2.82837,2.58813 -3.86719,5.06641c-0.63937,1.07251 -1.27875,2.14502 -1.9375,3.25c-3.25104,6.38031 -3.94153,13.75232 -5.0625,20.75c-0.33,0 -0.66,0 -1,0c-0.69756,-11.62592 0.4765,-19.40417 7.75,-28.75c8.98566,-9.74213 27.71704,-19.60529 40.25,-11.25z"/>
  <path id="svg_48" fill="url(#svg_338)" d="m643.8125,216.0625c4.7561,3.83807 6.88959,8.51157 7.625,14.5c-0.76477,6.00887 -3.06421,11.19281 -7.4375,15.4375c-2.75,0.3125 -2.75,0.3125 -5,0c0.76312,-0.55688 1.52625,-1.11375 2.3125,-1.6875c3.54193,-3.04771 5.4696,-5.08614 5.9375,-9.86719c0.10925,-5.0397 0.18848,-9.91669 -2.25,-14.44531c-2.38116,-1.40257 -2.38116,-1.40257 -5,-2c-0.98999,-0.33 -1.97998,-0.66 -3,-1c-5.24689,-0.25804 -9.05298,0.02118 -14,2c0.9917,-2.97516 1.72961,-3.86153 4.5625,-5.3125c5.86536,-1.17308 11.10547,-0.89278 16.25,2.375z"/>
  <path id="svg_49" fill="url(#svg_338)" d="m423,622c0,0.65997 0,1.32001 0,2c-0.92813,0.43311 -1.85626,0.86627 -2.8125,1.3125c-4.06793,2.15363 -5.73215,3.32141 -7.1875,7.6875c-0.66,0 -1.32001,0 -2,0c-1.41663,8.14557 -2.44608,15.88025 1.79688,23.32031c1.74179,2.43176 3.74319,3.99976 6.20313,5.67969c1.66666,1.33331 3.33334,2.66669 5,4c-2.90912,0.24286 -4.55634,0.2644 -7.09766,-1.25c-5.72824,-5.10193 -9.33841,-9.25458 -10.3125,-17.01953c-0.33472,-7.92151 0.55231,-14.30597 5.41016,-20.73047c3.45517,-3.40118 6.00412,-5 11,-5z"/>
  <path id="svg_50" fill="url(#svg_338)" d="m667,424c2.375,2.1875 2.375,2.1875 4,5c0,3.25986 -0.53046,4.49692 -2.75,6.875c-2.25,1.125 -2.25,1.125 -4.8125,1c-2.68707,-0.9646 -3.87219,-1.48581 -5.4375,-3.875c-0.4375,-3 -0.4375,-3 0,-6c2.67029,-2.96695 5.08612,-3.78278 9,-3z"/>
  <path id="svg_51" fill="url(#svg_338)" d="m758,317c2.66919,2.14835 3.77942,3.55634 4.30078,6.96875c0.13452,3.79572 -0.17682,6.84531 -2.30078,10.03125c-1.32001,-0.32999 -2.64001,-0.66 -4,-1c0.51563,-0.68063 1.03125,-1.36124 1.5625,-2.0625c1.84528,-3.77084 1.44128,-5.92242 0.4375,-9.9375c-2.22888,-1.11444 -3.53058,-1.16479 -6,-1.1875c-0.70123,-0.01419 -1.40253,-0.02835 -2.125,-0.04297c-2.12024,0.06534 -2.12024,0.06534 -3.875,2.23047c-0.33032,3.56726 -0.42267,6.10776 1.125,9.375c2.50568,2.17157 4.62579,2.33618 7.875,2.625c-0.98999,0.98999 -1.97998,1.98001 -3,3c-6.33282,-2.27026 -6.33282,-2.27026 -9,-5.1875c-1.38611,-3.89838 -1.39185,-6.90427 0,-10.8125c4.36322,-5.34497 8.43903,-6.22849 15,-4z"/>
  <path id="svg_52" fill="url(#svg_338)" d="m725,426c1.9375,1.5625 1.9375,1.5625 3,4c-0.3125,3.75 -0.3125,3.75 -1,7c-2.31,0.66 -4.62,1.32001 -7,2c-4.76923,-4.30768 -4.76923,-4.30768 -5,-8c1.92548,-5.18393 4.69586,-5.54123 10,-5z"/>
  <path id="svg_53" fill="url(#svg_338)" d="m357,579c0.66,0 1.32001,0 2,0c-0.05801,0.98999 -0.11603,1.97998 -0.17578,3c-0.40714,9.92108 -0.40714,9.92108 4.08203,18.58203c1.09375,1.41797 1.09375,1.41797 1.09375,3.41797c1.3226,0.68774 2.65988,1.34711 4,2c0.98999,0.51563 1.98001,1.03125 3,1.5625c5.06039,2.19244 10.56113,2.17853 16,2.4375c-2.18655,2.47461 -2.67981,2.96155 -6.125,3.375c-8.43582,-0.81635 -14.71964,-3.41162 -20.28125,-10.05469c-3.96289,-5.55261 -5.26245,-11.56189 -5.59375,-18.32031c0.875,-3.75 0.875,-3.75 2,-6z"/>
  <path id="svg_54" fill="url(#svg_338)" d="m239.6875,496.9375c1.21236,0.01355 1.21236,0.01355 2.44922,0.02734c0.92232,0.0174 0.92232,0.0174 1.86328,0.03516c-3.30988,1.77545 -6.70595,2.95715 -10.25,4.1875c-8.36961,3.19379 -14.45203,7.83057 -18.75,15.8125c-3.10252,7.15881 -4.86757,14.29645 -6,22c-0.33,0 -0.66,0 -1,0c0.1851,-13.56329 2.18166,-22.7019 11.74219,-32.95313c5.6712,-5.14136 12.15961,-9.22223 19.94531,-9.10938z"/>
  <path id="svg_55" fill="url(#svg_338)" d="m378,690c7.10876,-0.52771 10.65067,2.72949 16,7c6.03186,5.20935 12.47989,13.28369 13.22705,21.49536c-0.01047,0.85358 -0.02094,1.70721 -0.03174,2.58667c-0.00644,0.93134 -0.01288,1.86267 -0.01953,2.82227c-0.01675,0.95972 -0.03351,1.91943 -0.05078,2.9082c-0.00903,0.97906 -0.01804,1.95807 -0.02734,2.9668c-0.0235,2.40717 -0.05634,4.81378 -0.09766,7.2207c-0.32999,0 -0.66,0 -1,0c-0.07477,-1.3045 -0.14954,-2.60907 -0.22656,-3.95313c-0.89465,-12.78363 -2.62759,-24.31958 -12.5625,-33.44531c-4.73621,-3.43085 -9.98105,-6.01416 -15.21094,-8.60156c0,-0.33002 0,-0.65997 0,-1z"/>
  <path id="svg_56" fill="url(#svg_338)" d="m436,224c1.0741,2.09984 2.08356,4.1963 3.00781,6.36719c3.25781,7.31296 7.15149,11.03105 14.12891,14.78125c4.22485,1.2565 8.29568,1.06148 12.67578,0.97656c1.32547,-0.01353 1.32547,-0.01353 2.67773,-0.02734c2.17004,-0.02345 4.33994,-0.05933 6.50977,-0.09766c-2,3 -2,3 -5,4c-8.87494,0.91447 -16.87152,-0.52364 -24.32813,-5.57813c-4.69867,-3.86334 -9.23654,-8.30074 -9.90625,-14.64063c-0.01358,-1.92862 0.09937,-3.85732 0.23438,-5.78125z"/>
  <path id="svg_57" fill="url(#svg_338)" d="m672,333c-0.56592,0.19336 -1.13177,0.38672 -1.71484,0.58594c-1.10022,0.39059 -1.10022,0.39059 -2.22266,0.78906c-1.09637,0.38284 -1.09637,0.38284 -2.21484,0.77344c-2.03448,0.70428 -2.03448,0.70428 -2.84766,2.85156c-0.49292,4.60315 -0.49292,4.60315 1.19141,8.71094c2.43646,1.73657 4.03619,1.59189 6.99609,1.47656c0.90106,-0.02707 1.80212,-0.05414 2.73047,-0.08203c0.68707,-0.03482 1.37415,-0.06961 2.08203,-0.10547c1.18469,-6.1637 1.18469,-6.1637 -0.4375,-12.0625c-0.77344,-0.95905 -0.77344,-0.95905 -1.5625,-1.9375c4.875,1.75 4.875,1.75 6,4c0.37512,4.97067 0.15881,8.05151 -3,12c-3.21857,2.33069 -6.10492,2.46741 -10,2c-5.57898,-3.1579 -5.57898,-3.1579 -7,-6c-0.40698,-4.05429 -0.56268,-7.74957 1.125,-11.5c3.47467,-2.77972 6.76501,-2.87 10.875,-1.5z"/>
  <path id="svg_58" fill="url(#svg_338)" d="m653,665c2.92249,1.81842 4.58459,3.32025 6.375,6.25c1.08606,4.77881 0.67438,9.07098 -1.9375,13.25c-0.47437,0.495 -0.94873,0.98999 -1.4375,1.5c-0.98999,-0.33002 -1.97998,-0.65997 -3,-1c0.495,-0.47437 0.98999,-0.94873 1.5,-1.4375c2.21991,-3.7923 2.18506,-7.27112 1.5,-11.5625c-1.31378,-2.73059 -1.31378,-2.73059 -4,-4c-4.6283,-0.58771 -6.83228,-0.62115 -10.9375,1.5625c-2.6261,3.10352 -2.83179,5.43842 -3.0625,9.4375c-0.65997,0 -1.32001,0 -2,0c-0.61005,-7.19824 -0.61005,-7.19824 2.1875,-10.875c5.17749,-3.91187 8.39795,-4.72864 14.8125,-3.125z"/>
  <path id="svg_59" fill="url(#svg_338)" d="m580,355c2.875,2.5 2.875,2.5 5,5c0.33002,0.32999 0.65997,0.66 1,1c0.40259,4.75027 0.46649,7.10031 -1.75,11.375c-3.00299,3.50348 -4.59546,4.40918 -9.125,5c-3.94696,-0.47363 -6.06189,-1.89536 -9.125,-4.375c0,-0.66 0,-1.32001 0,-2c0.65997,0.32999 1.32001,0.66 2,1c3.98004,1.32669 6.8028,1.33847 11,1c2.08331,-0.91666 2.08331,-0.91666 3,-3c0.82343,-3.48376 1.35895,-5.95084 0.1875,-9.375c-1.10736,-1.77588 -1.10736,-1.77588 -3.1875,-2.625c-1.70703,-0.06995 -3.41669,-0.08441 -5.125,-0.0625c-0.9101,0.00903 -1.82019,0.01804 -2.75781,0.02734c-0.69867,0.0116 -1.39734,0.02319 -2.11719,0.03516c0.33002,-0.98999 0.65997,-1.98001 1,-3c3.84558,-1.28186 6.06726,-0.94928 10,0z"/>
  <path id="svg_60" fill="url(#svg_338)" d="m374,504c0.98999,0 1.98001,0 3,0c4.25366,7.00333 6.27545,12.78571 5,21c-1.92783,6.86975 -4.70026,12.52521 -10.5,16.875c-2.8573,1.28577 -3.62137,1.01544 -6.5,0.125c0.5311,-0.36353 1.06219,-0.72705 1.60938,-1.10156c5.539,-3.94202 9.19125,-7.30029 11.39063,-13.89844c0.62079,-8.57892 0.8251,-15.61154 -4,-23z"/>
  <path id="svg_61" fill="url(#svg_338)" d="m279,565c-2.25687,5.80157 -7.73215,8.2218 -13,11c-9.26657,3.71704 -19.58673,4.68347 -29,1c-0.33,-0.65997 -0.66,-1.32001 -1,-2c0.60884,0.02094 1.21768,0.04187 1.84497,0.06348c20.23291,0.61279 20.23291,0.61279 37.59644,-8.8916c1.55859,-1.17188 1.55859,-1.17188 3.55859,-1.17188z"/>
  <path id="svg_62" fill="url(#svg_338)" d="m448.8125,401.6875c0.72186,0.10312 1.44376,0.20624 2.1875,0.3125c-0.74249,0.55688 -1.48499,1.11374 -2.25,1.6875c-4.83466,3.8649 -4.83466,3.8649 -7.10156,9.42188c-0.18469,5.00299 0.54202,8.6243 3.35156,12.89063c3.28491,2.18994 4.83096,2.35278 8.6875,2.625c0.99387,0.07477 1.98773,0.14954 3.01172,0.22656c0.75925,0.04898 1.51852,0.09796 2.30078,0.14844c-0.66,0.98999 -1.32001,1.98001 -2,3c-5.20483,0.60056 -8.60938,-0.17047 -13,-3c-4.14484,-3.91458 -5.70032,-8.39011 -6,-14c1.02243,-5.95349 4.27261,-12.58585 10.8125,-13.3125z"/>
  <path id="svg_63" fill="url(#svg_338)" d="m580,770c2.83026,0 4.50806,0.52899 6.5625,2.49609c6.43176,7.99152 7.96594,15.66632 6.95703,25.74219c-0.53485,2.84326 -1.19379,5.18768 -2.51953,7.76172c-1.48499,0.495 -1.48499,0.495 -3,1c0.875,-5.75 0.875,-5.75 2,-8c0.66241,-8.28033 0.51086,-15.5451 -4.75781,-22.23047c-1.24561,-1.42468 -2.51648,-2.82782 -3.81641,-4.20313c-1.42578,-1.56641 -1.42578,-1.56641 -1.42578,-2.56641z"/>
  <path id="svg_64" fill="url(#svg_338)" d="m705.92969,255.79688c3.21344,1.73337 5.03003,3.14267 7.07031,6.20313c0.19531,2.26172 0.19531,2.26172 0.125,4.6875c-0.01807,0.80826 -0.03607,1.61649 -0.05469,2.44922c-0.02319,0.6149 -0.04639,1.22977 -0.07031,1.86328c-0.33002,0 -0.65997,0 -1,0c-0.17017,-0.6149 -0.34033,-1.22977 -0.51563,-1.86328c-0.36353,-1.21237 -0.36353,-1.21237 -0.73438,-2.44922c-0.23206,-0.80051 -0.46405,-1.60101 -0.70313,-2.42578c-1.2793,-2.76392 -2.40222,-3.77264 -5.04688,-5.26172c-4.87683,-0.95157 -8.80951,-0.72888 -13.0625,1.875c-2.65338,4.27963 -2.8316,8.16629 -2.9375,13.125c-0.33002,-0.66 -0.65997,-1.32001 -1,-2c-0.65997,0 -1.32001,0 -2,0c0.4007,-5.81006 1.07245,-9.43555 5,-14c4.72424,-3.14951 9.47986,-4.45367 14.92969,-2.20313z"/>
  <path id="svg_65" fill="url(#svg_338)" d="m766,576c2.48895,2.89038 3.02795,4.30066 2.875,8.125c-0.90283,2.96655 -1.33691,4.15271 -3.875,5.875c-3.47412,1.31451 -4.75421,1.09924 -8.25,-0.3125c-2.75,-1.6875 -2.75,-1.6875 -3.75,-3.6875c-0.45453,-6.13635 -0.45453,-6.13635 1.25,-9.375c3.8869,-3.60925 7.12445,-2.79016 11.75,-0.625zm-9.875,2.125c-1.64648,2.74414 -1.52466,4.74445 -1.125,7.875c3.45245,2.30164 4.94739,2.34491 9,2c2.30743,-1.87775 2.30743,-1.87775 2.25,-4.9375c-0.01483,-3.23535 -0.01483,-3.23535 -2.25,-6.0625c-3.13055,-0.39966 -5.13086,-0.52148 -7.875,1.125z"/>
  <path id="svg_66" fill="url(#svg_338)" d="m495,370c0.32999,0.98999 0.66,1.98001 1,3c-0.81985,-0.0116 -1.63968,-0.02319 -2.48438,-0.03516c-1.07767,-0.00903 -2.1553,-0.01804 -3.26563,-0.02734c-1.06735,-0.0116 -2.1347,-0.02319 -3.23438,-0.03516c-2.57004,0.08322 -4.61444,0.20831 -7.01563,1.09766c-2.42734,4.0051 -2.61932,8.44284 -2,13c1.26334,2.80167 1.26334,2.80167 3,5c0.66,0.98999 1.32001,1.98001 2,3c-2.96643,-0.31784 -4.01077,-1.01047 -6.1875,-3.125c-2.20853,-3.5032 -2.74112,-5.73514 -2.8125,-9.875c1.61774,-5.21274 3.84915,-8.4718 8,-12c4.47253,-1.49084 8.52744,-1.49084 13,0z"/>
  <path id="svg_67" fill="url(#svg_338)" d="m793,448c1.38123,2.76251 1.1908,4.9473 1,8c-2.59161,2.59158 -4.41956,2.56158 -8,3c-0.98999,0 -1.97998,0 -3,0c0.11359,-1.64667 0.24115,-3.29236 0.375,-4.9375c0.06958,-0.91653 0.13922,-1.83304 0.21094,-2.77734c0.13666,-0.75412 0.27325,-1.50821 0.41406,-2.28516c2.95667,-1.47833 5.74231,-1.06033 9,-1z"/>
  <path id="svg_68" fill="url(#svg_338)" d="m533,354c3.70911,1.78586 5.54022,3.36224 7.9375,6.6875c1.40363,4.3761 1.297,7.89426 0.0625,12.3125c-2.0625,3.0625 -2.0625,3.0625 -4,5c-0.98999,-0.32999 -1.97998,-0.66 -3,-1c0.65997,-0.61874 1.32001,-1.23749 2,-1.875c2.77466,-4.33536 2.86609,-8.09821 2,-13.125c-1.88513,-2.57635 -3.19336,-3.59668 -6,-5c-1.8786,0.08743 -3.75458,0.24176 -5.625,0.4375c-1.50433,0.15274 -1.50433,0.15274 -3.03906,0.30859c-0.77087,0.0838 -1.54175,0.16757 -2.33594,0.25391c0.33002,-0.98999 0.65997,-1.98001 1,-3c3.47675,-1.73837 7.19873,-1.45435 11,-1z"/>
  <path id="svg_69" fill="url(#svg_338)" d="m717,629c3.04523,2.16376 3.85217,3.44269 4.8125,7.0625c0.1875,2.9375 0.1875,2.9375 -0.8125,5.9375c-0.65997,0 -1.32001,0 -2,0c-0.19531,-2.01825 -0.39063,-4.03644 -0.58594,-6.05469c-0.27783,-2.172 -0.27783,-2.172 -2.41406,-3.94531c-4.6673,-0.43518 -4.6673,-0.43518 -9,1.0625c-1.60016,3.10028 -0.72192,5.62872 0,8.9375c0.33002,0.65997 0.65997,1.32001 1,2c-1.9375,-0.375 -1.9375,-0.375 -4,-1c-1.56934,-3.13873 -1.35199,-5.53857 -1,-9c4.5708,-5.53308 7.00427,-6.56799 14,-5z"/>
  <path id="svg_70" fill="url(#svg_338)" d="m328,306c1.83203,0.19531 1.83203,0.19531 4,1c1.44922,2.17969 1.44922,2.17969 2.6875,4.875c0.41638,0.88431 0.83273,1.76859 1.26172,2.67969c2.03528,4.73636 2.23404,8.86206 2.23828,13.94531c0.01224,0.77216 0.02448,1.54431 0.03711,2.33984c0.01016,3.90842 -0.00888,5.83658 -2.22461,9.16016c-0.66,0 -1.32001,0 -2,0c0.16501,-0.96939 0.32999,-1.93875 0.5,-2.9375c1.49319,-11.1655 -0.27939,-21.4375 -6.5,-31.0625z"/>
  <path id="svg_71" fill="url(#svg_338)" d="m345,246c1.15112,3.45335 0.95996,5.93167 0.8125,9.5625c-0.06168,9.97333 3.13651,16.70569 9.1875,24.4375c-4.25745,-0.8266 -5.52542,-2.40787 -8,-6c-4.82251,-8.16116 -5.96381,-16.73523 -4,-26c0.66,-0.66 1.32001,-1.32001 2,-2z"/>
  <path id="svg_72" fill="url(#svg_338)" d="m678,779c0.33002,0 0.65997,0 1,0c0.6051,4.14917 0.84235,7.57904 -1.34766,11.27344c-3.45331,4.08325 -6.62592,6.71967 -11.65234,8.72656c-3.64844,0.29297 -3.64844,0.29297 -7.375,0.1875c-1.24524,-0.02704 -2.49048,-0.05414 -3.77344,-0.08203c-0.94104,-0.03479 -1.88202,-0.06958 -2.85156,-0.10547c-0.33002,-0.98999 -0.65997,-1.97998 -1,-3c0.84564,0.04639 1.69122,0.09283 2.5625,0.14063c6.97107,0.2218 12.80109,0.35461 18.4375,-4.14063c3.43835,-4.07178 4.78143,-7.92255 6,-13z"/>
  <path id="svg_73" fill="url(#svg_338)" d="m654,760c-0.72186,0.55688 -1.44373,1.11377 -2.1875,1.6875c-7.18213,5.79346 -7.18213,5.79346 -10.11328,14.15234c-0.00385,1.02222 -0.00775,2.04443 -0.01172,3.09766c-0.01678,1.01965 -0.03351,2.03931 -0.05078,3.08984c0.40869,3.34399 1.58746,5.15973 3.36328,7.97266c-0.33002,0.65997 -0.65997,1.32001 -1,2c-4.20587,-3.08429 -5.00275,-6.48987 -5.8125,-11.40625c-0.46753,-6.4671 1.79749,-11.54633 5.8125,-16.59375c3.35364,-3.26764 5.28162,-4.53925 10,-4z"/>
  <path id="svg_74" fill="url(#svg_338)" d="m480,749c4.50085,0.5144 6.76361,1.8407 10,5c5.82416,7.36548 9.32108,13.26685 9.125,22.875c-0.01804,1.1524 -0.0361,2.30481 -0.05469,3.49219c-0.02319,0.86884 -0.04639,1.73767 -0.07031,2.63281c-0.32999,0 -0.66,0 -1,0c-0.15854,-0.97839 -0.31711,-1.95679 -0.48047,-2.96484c-2.06268,-11.9137 -5.45154,-19.74072 -14.51953,-28.03516c-1.00458,-0.99542 -2.00604,-1.99402 -3,-3z"/>
  <path id="svg_75" fill="url(#svg_338)" d="m262,389c7.21347,-0.50845 11.44653,2.7182 17,7c8.89163,8.67014 8.89163,8.67014 9.125,13.6875c-0.04126,0.76312 -0.08249,1.52625 -0.125,2.3125c-1.33896,-1.66214 -2.6713,-3.32965 -4,-5c-0.57751,-0.72186 -1.155,-1.44376 -1.75,-2.1875c-1.25,-1.8125 -1.25,-1.8125 -1.25,-3.8125c-0.66,0 -1.32001,0 -2,0c0,-0.66 0,-1.32001 0,-2c-0.51563,-0.2475 -1.03125,-0.495 -1.5625,-0.75c-2.03229,-1.04221 -3.97336,-2.15091 -5.9375,-3.3125c-2.47229,-1.43021 -4.64529,-2.48074 -7.5,-2.9375c0,-0.66 0,-1.32001 0,-2c-0.66,-0.32999 -1.32001,-0.66 -2,-1z"/>
  <path id="svg_76" fill="url(#svg_338)" d="m362,495c0,0.66 0,1.32001 0,2c0.98999,0.32999 1.98001,0.66 3,1c-0.82242,-0.05801 -1.64484,-0.11603 -2.49219,-0.17578c-7.32065,-0.29587 -12.2373,0.34372 -18.58203,4.08203c-1.92578,1.09375 -1.92578,1.09375 -3.92578,1.09375c-0.2475,0.72189 -0.495,1.44376 -0.75,2.1875c-1.35983,3.05963 -3.07919,5.27988 -5.25,7.8125c0.25177,-4.28033 0.52859,-6.45416 3.375,-9.75c0.86624,-0.74249 1.73251,-1.48499 2.625,-2.25c0.47696,-0.50659 0.95392,-1.01321 1.44531,-1.53516c5.63248,-5.30698 13.36716,-4.82156 20.55469,-4.46484z"/>
  <path id="svg_77" fill="url(#svg_338)" d="m708,376c0.125,5.75 0.125,5.75 -1,8c-1.97888,0.72693 -3.97955,1.39816 -6,2c-1.5625,-1.0625 -1.5625,-1.0625 -3,-3c0.3125,-3.6875 0.3125,-3.6875 1,-7c3.47821,-1.15942 5.45898,-0.70822 9,0z"/>
  <path id="svg_78" fill="url(#svg_338)" d="m674.5625,457.125c2.4375,0.875 2.4375,0.875 4.4375,3.875c-0.1875,2.5625 -0.1875,2.5625 -1,5c-3,2 -3,2 -5.0625,1.75c-1.9375,-0.75 -1.9375,-0.75 -3.9375,-2.75c-0.36798,-2.87012 -0.37506,-4.40775 1.1875,-6.875c1.8125,-1.125 1.8125,-1.125 4.375,-1z"/>
  <path id="svg_79" fill="url(#svg_338)" d="m498,375c3,1 3,1 4.25,3.0625c1.24701,4.88416 0.48792,9.02759 -1.3125,13.6875c-3.38397,3.92975 -7.71954,5.91248 -12.8125,6.6875c-2.125,-0.4375 -2.125,-0.4375 -4.125,-3.4375c0.59167,-0.02579 1.18335,-0.05154 1.79297,-0.07813c5.25687,-0.37732 8.38452,-0.97992 12.20703,-4.92188c2.19217,-4.38437 1.15775,-10.36902 0,-15z"/>
  <path id="svg_80" fill="url(#svg_338)" d="m539,784c0.89685,3.00549 1.00256,5.44458 0.8125,8.5625c-0.03027,6.84613 1.45667,13.3653 6.09375,18.58203c1.96741,1.74353 3.96002,3.3219 6.09375,4.85547c1.33331,1 2.66669,2 4,3c-3.63342,0.55054 -5.16003,-0.08728 -8.4375,-1.875c-5.02655,-4.00134 -9.02173,-8.73926 -9.83203,-15.31104c-0.78235,-13.71027 -0.78235,-13.71027 1.26953,-17.81396z"/>
  <path id="svg_81" fill="url(#svg_338)" d="m389,563c6.08298,1.68469 10.75098,5.60907 14,11c0.375,2.9375 0.375,2.9375 0,5c-3.82352,-4.58826 -3.82352,-4.58826 -4.9375,-7.1875c-1.5239,-2.59961 -3.24521,-2.89526 -6.0625,-3.8125c-0.73993,-0.33514 -1.47983,-0.67029 -2.24219,-1.01563c-3.24756,-1.15918 -6.13309,-1.40106 -9.57031,-1.60938c-1.16144,-0.07477 -2.32288,-0.14954 -3.51953,-0.22656c-0.88043,-0.04901 -1.76086,-0.09796 -2.66797,-0.14844c4.70163,-3.1344 9.49765,-2.55231 15,-2z"/>
  <path id="svg_82" fill="url(#svg_338)" d="m265,500c6.04227,0.30212 9.70462,3.01083 14,7c9.40875,10.6424 9.40875,10.6424 9,18c-2.29849,-2.87311 -4.10211,-5.87885 -5.83984,-9.12109c-3.08356,-4.99393 -6.45764,-7.99472 -11.41016,-11.12891c-1.93051,-1.22852 -3.85159,-2.47244 -5.75,-3.75c0,-0.32999 0,-0.66 0,-1z"/>
  <path id="svg_83" fill="url(#svg_338)" d="m480,198c2.98026,0.31509 3.87997,0.85818 5.85156,3.1875c4.60049,7.29591 7.45108,13.04607 6.89844,21.75c-0.75,3.0625 -0.75,3.0625 -2.75,5.0625c-0.32999,-5.61 -0.66,-11.22 -1,-17c-0.66,0 -1.32001,0 -2,0c-0.61874,-1.60875 -0.61874,-1.60875 -1.25,-3.25c-1.39127,-3.2951 -3.12042,-5.30176 -5.75,-7.75c0,-0.66 0,-1.32001 0,-2z"/>
  <path id="svg_84" fill="url(#svg_338)" d="m424,621c2.20807,-0.05444 4.4165,-0.09302 6.625,-0.125c1.22977,-0.02319 2.45953,-0.04639 3.72656,-0.07031c6.77405,0.36261 10.7699,2.53363 15.64844,7.19531c4.35168,5.85223 4.12061,12.00543 4,19c-0.66,0.33002 -1.32001,0.65997 -2,1c0.0928,-1.73248 0.0928,-1.73248 0.1875,-3.5c-0.01212,-6.84332 -2.40485,-12.57666 -7.1875,-17.5c-4.28635,-3.16919 -8.1611,-3.68573 -13.3125,-4.1875c-0.74057,-0.08185 -1.48114,-0.1637 -2.24414,-0.24805c-1.81332,-0.19885 -3.6282,-0.38318 -5.44336,-0.56445c0,-0.33002 0,-0.65997 0,-1z"/>
  <path id="svg_85" fill="url(#svg_338)" d="m256,665c2.27689,2.19257 4.26877,4.35321 6.1875,6.875c5.15469,6.24573 12.26007,9.65332 19.8125,12.125c0,0.33002 0,0.65997 0,1c-9.19949,-0.14838 -14.64172,-3.81293 -21.1875,-10.10156c-4.8125,-5.18121 -4.8125,-5.18121 -4.8125,-9.89844z"/>
  <path id="svg_86" fill="url(#svg_338)" d="m328,626c3,1 3,1 3.91406,2.75c2.63153,8.32831 5.22571,18.97046 1.08594,27.25c-0.66,0 -1.32001,0 -2,0c0.03479,-1.07635 0.06961,-2.15271 0.10547,-3.26172c0.20798,-9.43005 -0.4425,-17.62396 -3.10547,-26.73828z"/>
  <path id="svg_87" fill="url(#svg_338)" d="m517,360c0.65997,0 1.32001,0 2,0c-0.03479,0.81985 -0.06958,1.63968 -0.10547,2.48438c-0.0271,1.07767 -0.05414,2.1553 -0.08203,3.26563c-0.03479,1.06735 -0.06958,2.1347 -0.10547,3.23438c0.33246,3.4223 0.7663,4.70309 3.29297,7.01563c2.71411,0.90988 2.71411,0.90988 5.6875,1.25c0.9939,0.14954 1.98773,0.29907 3.01172,0.45313c0.75928,0.09796 1.51849,0.19592 2.30078,0.29688c-1.39197,2.78391 -3.15576,2.979 -6,4c0,-0.66 0,-1.32001 0,-2c-0.72186,-0.08249 -1.44373,-0.16501 -2.1875,-0.25c-4.25897,-1.13574 -6.84589,-3.21216 -9.1875,-6.9375c-0.89417,-4.02371 -0.44763,-7.79068 0.375,-11.8125c0.33002,-0.32999 0.65997,-0.66 1,-1z"/>
  <path id="svg_88" fill="url(#svg_338)" d="m451.27734,195.29297c0.56848,0.23332 1.13696,0.46664 1.72266,0.70703c-0.59167,0.41251 -1.18335,0.825 -1.79297,1.25c-7.62506,5.57263 -11.76062,10.35306 -13.51953,19.75c-0.24646,1.6642 -0.48184,3.33026 -0.6875,5c-0.32999,0 -0.66,0 -1,0c-1.39093,-6.63362 -1.05826,-10.60753 2.26953,-16.55469c7.67038,-10.83897 7.67038,-10.83897 13.00781,-10.15234z"/>
  <path id="svg_89" fill="url(#svg_338)" d="m643.5625,394.8125c3.4375,1.1875 3.4375,1.1875 4.4375,3.1875c0.04022,2.33298 0.04321,4.66708 0,7c-0.33002,0 -0.65997,0 -1,0c-0.33002,-1.98001 -0.65997,-3.95999 -1,-6c-4.48132,-0.72256 -4.48132,-0.72256 -9,-1c0,2.31 0,4.62 0,7c3.46503,1.48499 3.46503,1.48499 7,3c0,0.66 0,1.32001 0,2c-6.40704,-0.48355 -6.40704,-0.48355 -8.9375,-2.6875c-1.4007,-3.04852 -1.54675,-4.99176 -1.0625,-8.3125c3.10022,-3.82361 4.64087,-5.30997 9.5625,-4.1875z"/>
  <path id="svg_90" fill="url(#svg_338)" d="m513,663c0.65997,0.65997 1.32001,1.32001 2,2c-0.375,2.125 -0.375,2.125 -1,4c-0.70123,-0.76312 -1.40253,-1.52625 -2.125,-2.3125c-5.14838,-4.81262 -9.24686,-6.07318 -16.25,-5.875c-1.24524,0.0271 -2.49048,0.05414 -3.77344,0.08203c-0.94101,0.03479 -1.88202,0.06958 -2.85156,0.10547c2,-3 2,-3 4.0625,-3.75c7.97443,-0.67865 13.56906,0.84766 19.9375,5.75z"/>
  <path id="svg_91" fill="url(#svg_338)" d="m304,607c7.2106,-0.51959 11.43292,2.75879 17,7c2.43649,2.24872 4.0929,4.2453 6,7c-0.32999,0.98999 -0.66,1.97998 -1,3c-0.49887,-0.56848 -0.99774,-1.13696 -1.51172,-1.72266c-6.16913,-6.63434 -12.40918,-10.39386 -20.48828,-14.27734c0,-0.33002 0,-0.65997 0,-1z"/>
  <path id="svg_92" fill="url(#svg_338)" d="m427,344c4,2 4,2 5.74609,3.02344c6.83398,2.961 15.41269,2.68124 22.25391,-0.02344c-0.8125,1.9375 -0.8125,1.9375 -2,4c-6.46402,2.15466 -14.4649,2.16684 -20.6875,-0.75c-2.94244,-1.5878 -4.00693,-3.18869 -5.3125,-6.25z"/>
  <path id="svg_93" fill="url(#svg_338)" d="m375.1875,223.8125c1.21042,0.00645 2.42087,0.01289 3.66797,0.01953c3.14453,0.16797 3.14453,0.16797 6.14453,1.16797c0,0.66 0,1.32001 0,2c1.64999,0.66 3.29999,1.32001 5,2c-2,1 -2,1 -3.96094,0.40625c-1.19498,-0.44859 -1.19498,-0.44859 -2.41406,-0.90625c-7.60989,-2.42987 -14.95099,-1.12148 -22.625,0.5c0.32999,-0.99001 0.66,-1.98 1,-3c4.43317,-1.99458 8.36957,-2.24429 13.1875,-2.1875z"/>
  <path id="svg_94" fill="url(#svg_338)" d="m453,635c2.86539,4.2981 2.4678,7.9566 2,13c-1.52036,7.43542 -4.59793,12.73193 -11,17c-2.1875,-0.375 -2.1875,-0.375 -4,-1c0.77924,-0.58392 0.77924,-0.58392 1.57422,-1.17969c5.54639,-4.4494 9.3598,-8.92395 11.42578,-15.82031c0.36752,-4.04285 0.31271,-7.95575 0,-12z"/>
  <path id="svg_95" fill="url(#svg_338)" d="m211,550c2,1 2,1 3.25,4.0625c3.49506,8.44348 8.96667,13.37128 16.75,17.9375c-2,1 -2,1 -5.125,0.125c-6.63322,-2.99744 -11.55087,-9.83252 -14.875,-16.125c-0.1875,-3.3125 -0.1875,-3.3125 0,-6z"/>
  <path id="svg_96" fill="url(#svg_338)" d="m615,368c2.875,1.1875 2.875,1.1875 5,3c0.3125,2.6875 0.3125,2.6875 0,5c-0.6806,-0.98999 -0.6806,-0.98999 -1.375,-2c-4.07642,-3.10583 -7.5885,-2.26508 -12.625,-2c-0.65997,3.29999 -1.32001,6.60001 -2,10c-0.65997,-0.32999 -1.32001,-0.66 -2,-1c-0.3125,-3.1875 -0.3125,-3.1875 0,-7c4.06604,-4.92206 6.64911,-6.49811 13,-6z"/>
  <path id="svg_97" fill="url(#svg_338)" d="m264,316c1.00006,3.00015 1.11575,4.97424 1.09766,8.10547c-0.00323,0.98291 -0.00644,1.96582 -0.00977,2.97852c-0.00839,1.02417 -0.01675,2.04834 -0.02539,3.10352c-0.00452,1.03577 -0.00903,2.07153 -0.01367,3.13867c-0.01178,2.55798 -0.02823,5.11588 -0.04883,7.67383c-0.98999,-0.32999 -1.98001,-0.66 -3,-1c-1.43439,-3.45749 -1.16782,-7.24823 -1.1875,-10.9375c-0.01419,-1.20526 -0.02835,-2.41055 -0.04297,-3.65234c0.23544,-3.48349 0.65863,-6.83832 3.23047,-9.41016z"/>
  <path id="svg_98" fill="url(#svg_338)" d="m427,766c1.24976,3.74927 0.57993,6.10052 0,10c-0.06516,2.64508 -0.08591,5.29169 -0.0625,7.9375c0.00452,0.68384 0.00903,1.36768 0.01367,2.07227c0.01163,1.66345 0.02957,3.32684 0.04883,4.99023c-0.66,0 -1.32001,0 -2,0c-2.27908,-8.04376 -2.6795,-15.96155 0,-24c0.66,-0.33002 1.32001,-0.65997 2,-1z"/>
  <path id="svg_99" fill="url(#svg_338)" d="m377,459c0.32999,1.32001 0.66,2.64001 1,4c-1.29016,0.98114 -2.58218,1.95984 -3.875,2.9375c-0.7193,0.54526 -1.4386,1.09055 -2.17969,1.65234c-3.72287,2.6987 -6.36194,2.57419 -10.94531,2.59766c-1.88718,0.02127 -1.88718,0.02127 -3.8125,0.04297c-3.1875,-0.23047 -3.1875,-0.23047 -5.1875,-2.23047c0.94101,-0.03738 1.88202,-0.07477 2.85156,-0.11328c1.24524,-0.06573 2.49048,-0.1315 3.77344,-0.19922c1.84467,-0.08701 1.84467,-0.08701 3.72656,-0.17578c6.51755,-0.91412 10.26544,-3.74197 14.64844,-8.51172z"/>
  <path id="svg_100" fill="url(#svg_338)" d="m484,312c1.5,1.375 1.5,1.375 3,3c0,0.66 0,1.32001 0,2c4.76794,2.46619 8.30341,3.11581 13.6875,3.0625c1.1795,-0.00903 2.35898,-0.01804 3.57422,-0.02734c0.90363,-0.0116 1.80725,-0.02319 2.73828,-0.03516c-3.58594,3.94531 -3.58594,3.94531 -7.3125,4.4375c-6.12173,-0.72632 -11.3605,-2.97937 -15.6875,-7.4375c-0.3125,-2.75 -0.3125,-2.75 0,-5z"/>
  <path id="svg_101" fill="url(#svg_338)" d="m368.75,686.25c1.12921,0.06702 2.25845,0.13403 3.42188,0.20313c0.93329,0.18048 1.86658,0.36096 2.82813,0.54688c0.66,0.98999 1.32001,1.97998 2,3c-1.20657,-0.0116 -2.41312,-0.02319 -3.65625,-0.03516c-1.61459,-0.0094 -3.22916,-0.01849 -4.84375,-0.02734c-0.79147,-0.00836 -1.58298,-0.01678 -2.39844,-0.02539c-5.12918,-0.021 -10.02493,0.34851 -15.10156,1.08789c5.56393,-5.073 10.43167,-5.25586 17.75,-4.75z"/>
  <path id="svg_102" fill="url(#svg_338)" d="m506,287c0.32999,0.98999 0.66,1.98001 1,3c-0.71286,-0.02319 -1.42569,-0.04642 -2.16016,-0.07031c-5.72345,-0.10785 -10.43823,0.14975 -15.83984,2.07031c0,0.66 0,1.32001 0,2c-1.62625,1.38232 -3.29251,2.71939 -5,4c0,-2.79663 0.59888,-4.51886 2.39063,-6.66797c6.01062,-5.31613 11.90558,-4.96619 19.60938,-4.33203z"/>
  <path id="svg_103" fill="url(#svg_338)" d="m581,813c0.65997,0 1.32001,0 2,0c-0.30078,1.85938 -0.30078,1.85938 -1,4c-6.79816,4.79871 -13.86145,4.88934 -22,4c-0.98999,-0.65997 -1.97998,-1.32001 -3,-2c0.98999,-0.02576 1.97998,-0.05157 3,-0.07813c11.39978,-0.26245 11.39978,-0.26245 21,-5.92188z"/>
  <path id="svg_104" fill="url(#svg_338)" d="m726,745c2.23694,1.07703 4.18658,2.13855 6.1875,3.625c5.06934,2.47833 10.04962,1.86981 15.375,0.375c0.80438,-0.33002 1.60876,-0.65997 2.4375,-1c-0.8125,1.9375 -0.8125,1.9375 -2,4c-5.15173,1.71722 -11.04865,1.99237 -16.24219,0.24609c-2.73541,-1.44714 -4.48737,-2.59698 -5.69531,-5.49609c-0.02063,-0.57751 -0.04126,-1.15503 -0.0625,-1.75z"/>
  <path id="svg_105" fill="url(#svg_338)" d="m402,268c1,2 1,2 0.0625,5.1875c-2.62894,5.81775 -8.2168,10.38754 -14.0625,12.8125c-3.25,0.125 -3.25,0.125 -6,0c1.96716,-1.96716 3.32968,-2.72617 5.8125,-3.875c6.931,-3.42798 10.4075,-7.49796 14.1875,-14.125z"/>
  <path id="svg_106" fill="url(#svg_338)" d="m353,768c8.25,0 16.5,0 25,0c-0.98999,0.495 -0.98999,0.495 -2,1c0,0.65997 0,1.32001 0,2c-8.16022,2.17609 -15.38007,1.38666 -23,-2c0,-0.33002 0,-0.65997 0,-1z"/>
  <path id="svg_107" fill="url(#svg_338)" d="m348,692c-0.98999,0.77344 -0.98999,0.77344 -2,1.5625c-0.98999,0.80438 -1.98001,1.60876 -3,2.4375c-0.63937,0.50916 -1.27875,1.01837 -1.9375,1.54297c-4.33447,3.5874 -7.39926,7.03491 -10.15234,11.95313c-0.30035,0.49628 -0.60071,0.99255 -0.91016,1.50391c-0.32999,0 -0.66,0 -1,0c-0.40607,-3.38806 -0.21085,-4.70184 1.79297,-7.53516c0.79019,-0.83405 1.58038,-1.66803 2.39453,-2.52734c0.77731,-0.83661 1.5546,-1.67322 2.35547,-2.53516c7.16647,-7.00696 7.16647,-7.00696 12.45703,-6.40234z"/>
  <path id="svg_108" fill="url(#svg_338)" d="m408,369c3.75159,2.42038 3.75159,2.42038 4.75,4.75c0.73587,6.6228 0.04089,11.25473 -2.75,17.25c-0.98999,0.32999 -1.98001,0.66 -3,1c0.32999,-1.13437 0.66,-2.26874 1,-3.4375c1.64291,-6.58325 1.35928,-12.93594 0,-19.5625z"/>
  <path id="svg_109" fill="url(#svg_338)" d="m326,740c2.40158,2.40155 3.37503,4.73651 4.8125,7.8125c2.26935,4.65582 4.34018,7.79279 8.1875,11.1875c0,0.65997 0,1.32001 0,2c-2.5593,-0.38141 -3.76529,-0.75958 -5.59766,-2.63672c-7.92181,-11.09058 -7.92181,-11.09058 -7.40234,-18.36328z"/>
  <path id="svg_110" fill="url(#svg_338)" d="m559,688c0.33002,0 0.65997,0 1,0c0.14697,0.77087 0.29388,1.54175 0.44531,2.33594c1.112,6.09204 1.112,6.09204 5.11719,10.35156c4.4967,0.40881 8.9267,0.47296 13.4375,0.3125c-0.33002,0.98999 -0.65997,1.97998 -1,3c-12.06036,0.57025 -12.06036,0.57025 -16,-3c-3.52142,-4.24994 -3.26855,-7.71875 -3,-13z"/>
  <path id="svg_111" fill="url(#svg_338)" d="m787,380c1.9375,1.6875 1.9375,1.6875 3,4c0.1875,3.75 0.1875,3.75 0,7c-0.98999,0.32999 -1.97998,0.66 -3,1c0.04126,-1.09314 0.08252,-2.18625 0.125,-3.3125c0.19574,-3.77643 0.19574,-3.77643 -2.125,-6.6875c-4.23999,-0.39258 -7.36731,-0.32489 -11,2c0.1875,-1.875 0.1875,-1.875 1,-4c4.29858,-2.78146 7.43079,-1.86151 12,0z"/>
  <path id="svg_112" fill="url(#svg_338)" d="m707,373c0.65997,0.32999 1.32001,0.66 2,1c-0.33002,0.98999 -0.65997,1.98001 -1,3c-2.96997,-0.32999 -5.94,-0.66 -9,-1c0,2.97 0,5.94 0,9c1.65002,0.32999 3.29999,0.66 5,1c0,0.32999 0,0.66 0,1c-2.70313,0.21918 -4.43958,0.32852 -6.8125,-1.0625c-1.88391,-3.07379 -1.61932,-5.42136 -1.1875,-8.9375c2.91882,-4.55334 5.85565,-4.47632 11,-4z"/>
  <path id="svg_113" fill="url(#svg_338)" d="m316.67969,293.73438c2.64313,1.44171 3.30292,2.48242 4.32031,5.26563c-1.39648,-0.45636 -2.79214,-0.91519 -4.1875,-1.375c-0.77731,-0.25525 -1.55463,-0.51047 -2.35547,-0.77344c-2.45703,-0.85156 -2.45703,-0.85156 -4.89453,-1.91406c-2.85315,-1.04382 -5.35025,-1.34384 -8.375,-1.5625c-0.97583,-0.07477 -1.95163,-0.14954 -2.95703,-0.22656c-0.73605,-0.04898 -1.47211,-0.09796 -2.23047,-0.14844c7.15372,-3.9306 13.40421,-1.81912 20.67969,0.73438z"/>
  <path id="svg_114" fill="url(#svg_338)" d="m719,428c2.0072,0.28674 4.00861,0.61868 6,1c0.625,2.375 0.625,2.375 1,5c-2,2 -2,2 -4.5625,2.1875c-2.4375,-0.1875 -2.4375,-0.1875 -3.4375,-1.1875c-0.125,-3 -0.125,-3 0,-6c0.33002,-0.32999 0.65997,-0.66 1,-1z"/>
  <path id="svg_115" fill="url(#svg_338)" d="m471,743c0,0.65997 0,1.32001 0,2c0.66,0.33002 1.32001,0.65997 2,1c-7.59,0 -15.17999,0 -23,0c0.66,-0.33002 1.32001,-0.65997 2,-1c0,-0.65997 0,-1.32001 0,-2c6.17896,-1.59454 12.82104,-1.59454 19,0z"/>
  <path id="svg_116" fill="url(#svg_338)" d="m577,678c2.59515,0.35071 4.5257,0.66626 6.6875,2.1875c2.69159,3.71698 3.3418,6.94751 3.1875,11.5c-0.875,3.3125 -0.875,3.3125 -2.9375,5.25c-0.6394,0.35065 -1.27875,0.70123 -1.9375,1.0625c0.2359,-0.85272 0.2359,-0.85272 0.47656,-1.72266c0.86987,-3.78467 1.16193,-7.43268 0.52344,-11.27734c-2.29199,-2.96051 -2.29199,-2.96051 -5,-5c-0.33002,-0.65997 -0.65997,-1.32001 -1,-2z"/>
  <path id="svg_117" fill="url(#svg_338)" d="m658,531c2,0.0625 2,0.0625 4,1c1.25,2.5625 1.25,2.5625 2,5c-0.98999,0.98999 -1.97998,1.97998 -3,3c-2.47498,-0.98999 -2.47498,-0.98999 -5,-2c-0.125,-2.375 -0.125,-2.375 0,-5c0.65997,-0.65997 1.32001,-1.32001 2,-2z"/>
  <path id="svg_118" fill="url(#svg_338)" d="m666.25,426.875c0.86627,0.55688 0.86627,0.55688 1.75,1.125c0.04272,1.66611 0.04065,3.33383 0,5c-1,1 -1,1 -4.0625,1.0625c-0.96936,-0.02063 -1.93872,-0.04126 -2.9375,-0.0625c-0.33002,-1.98001 -0.65997,-3.95999 -1,-6c3.44617,-2.21539 3.44617,-2.21539 6.25,-1.125z"/>
  <path id="svg_119" fill="url(#svg_338)" d="m286,363c1.45599,0.24557 1.45599,0.24557 2.94141,0.49609c4.34137,0.62021 8.61856,0.61517 12.99609,0.56641c0.77924,-0.00452 1.55847,-0.00903 2.36133,-0.01367c1.90042,-0.01166 3.80081,-0.0296 5.70117,-0.04883c-1.00781,1.47656 -1.00781,1.47656 -3,3c-2.7204,0.29965 -5.16083,0.41901 -7.875,0.375c-0.7077,0.0116 -1.41541,0.02319 -2.14453,0.03516c-4.48856,-0.02509 -7.4097,-0.65158 -10.98047,-3.41016c0,-0.32999 0,-0.66 0,-1z"/>
  <path id="svg_120" fill="url(#svg_338)" d="m427,792c2.41953,2.24109 4.07938,4.57721 5.8125,7.375c2.64233,4.05951 5.3038,6.75848 9.1875,9.625c-1.6875,0.75 -1.6875,0.75 -4,1c-5.33661,-2.94916 -8.48041,-8.59717 -11,-14c0,-1.32001 0,-2.64001 0,-4z"/>
  <path id="svg_121" fill="url(#svg_338)" d="m218,443c2.25246,2.68842 3.88214,4.64642 5,8c1.31018,0.71109 2.64778,1.37253 4,2c1.28017,1.00436 2.53128,2.04691 3.75,3.125c0.92039,0.80823 0.92039,0.80823 1.85938,1.63281c0.45891,0.40991 0.91782,0.81985 1.39063,1.24219c-1.71484,0.72656 -1.71484,0.72656 -4,1c-2.25391,-1.47656 -2.25391,-1.47656 -4.5625,-3.625c-0.7644,-0.69351 -1.52882,-1.38702 -2.31641,-2.10156c-3.51321,-3.76553 -5.12109,-6.04614 -5.12109,-11.27344z"/>
  <path id="svg_122" fill="url(#svg_338)" d="m326,716c0.88101,2.97821 1.06705,5.45294 0.87891,8.54688c-0.04834,0.84436 -0.09668,1.68866 -0.14648,2.55859c-0.05606,0.87268 -0.11215,1.74536 -0.16992,2.64453c-0.05222,0.88818 -0.1044,1.77631 -0.1582,2.69141c-0.1293,2.18658 -0.26425,4.37268 -0.4043,6.55859c-3.86865,-5.80298 -3.58896,-11.31897 -2.5,-18.125c0.16501,-0.61877 0.32999,-1.23749 0.5,-1.875c0.66,0 1.32001,0 2,0c0,-0.98999 0,-1.97998 0,-3z"/>
  <path id="svg_123" fill="url(#svg_338)" d="m282,449c0.32999,0.98999 0.66,1.98001 1,3c-1.39114,1.27597 -2.78815,2.54556 -4.1875,3.8125c-0.77731,0.7077 -1.5546,1.41541 -2.35547,2.14453c-4.10382,3.41223 -7.01181,5.5097 -12.45703,5.04297c2.35056,-2.59637 4.83167,-4.1637 7.875,-5.875c4.01193,-2.34616 7.0589,-4.65009 10.125,-8.125z"/>
  <path id="svg_124" fill="url(#svg_338)" d="m330,657c0.32999,0 0.66,0 1,0c0.85898,5.58331 -1.29013,8.57355 -4.39844,12.94141c-1.71686,2.20679 -3.50568,4.20453 -5.60156,6.05859c-0.98999,-0.33002 -1.98001,-0.65997 -3,-1c0.4473,-0.46149 0.89462,-0.92297 1.35547,-1.39844c4.72443,-5.09717 7.82657,-10.2644 10.64453,-16.60156z"/>
  <path id="svg_125" fill="url(#svg_338)" d="m620,377c0.33002,0 0.65997,0 1,0c0.48212,6.26721 0.48212,6.26721 -1.5625,9.375c-3.21655,2.14438 -5.59003,2.48999 -9.4375,2.625c-2.9375,-0.9375 -2.9375,-0.9375 -5,-2c0.33002,-0.98999 0.65997,-1.98001 1,-3c0.65997,0.32999 1.32001,0.66 2,1c1.37341,0.06894 2.75,0.08469 4.125,0.0625c1.27875,-0.02063 2.5575,-0.04126 3.875,-0.0625c1.32001,-2.64001 2.64001,-5.28 4,-8z"/>
  <path id="svg_126" fill="url(#svg_338)" d="m334,528c1.78085,2.18561 2.98282,3.9519 3.9375,6.625c1.31232,2.93347 2.19775,3.09271 5.0625,4.375c2.66666,1.33331 5.33334,2.66669 8,4c0,0.33002 0,0.65997 0,1c-3.96219,0.48322 -6.36926,0.07599 -9.625,-2.125c-3.24252,-2.54517 -5.45493,-5.18842 -7.375,-8.875c-0.25,-2.875 -0.25,-2.875 0,-5z"/>
  <path id="svg_127" fill="url(#svg_338)" d="m671.5625,492.9375c1.20654,0.03094 1.20654,0.03094 2.4375,0.0625c0.65997,1.32001 1.32001,2.64001 2,4c-0.98999,1.32001 -1.97998,2.64001 -3,4c-2.47498,-0.98999 -2.47498,-0.98999 -5,-2c-0.04272,-1.66611 -0.04065,-3.33383 0,-5c1,-1 1,-1 3.5625,-1.0625z"/>
  <path id="svg_128" fill="url(#svg_338)" d="m215,415c0.96088,2.88266 1.11671,4.67661 1.09766,7.66797c-0.00484,1.33902 -0.00484,1.33902 -0.00977,2.70508c-0.00838,0.92877 -0.01675,1.85754 -0.02539,2.81445c-0.00452,0.94037 -0.00902,1.88074 -0.01367,2.84961c-0.01178,2.32104 -0.02823,4.64194 -0.04883,6.96289c-3.52501,-3.27667 -3.59695,-5.64377 -3.94922,-10.34766c-0.07005,-3.65869 0.34802,-7.0452 0.94922,-10.65234c0.66,0 1.32001,0 2,0c0,-0.66 0,-1.32001 0,-2z"/>
  <path id="svg_129" fill="url(#svg_338)" d="m571,288c2.93573,1.01233 3.97516,1.96359 5.75,4.5625c1.55902,4.28735 1.52039,7.93109 1.25,12.4375c-0.98999,0.32999 -1.97998,0.66 -3,1c-0.03735,-0.81982 -0.07477,-1.63968 -0.11328,-2.48438c-0.06573,-1.07767 -0.13147,-2.1553 -0.19922,-3.26563c-0.05798,-1.06735 -0.11603,-2.1347 -0.17578,-3.23438c-0.54834,-3.23135 -1.44299,-4.5531 -3.51172,-7.01563c0,-0.66 0,-1.32001 0,-2z"/>
  <path id="svg_130" fill="url(#svg_338)" d="m467,412c0.98999,0.32999 1.98001,0.66 3,1c-0.17224,6.90585 -1.58124,10.67484 -6,16c-1.32001,-0.32999 -2.64001,-0.66 -4,-1c0.80438,-0.78375 1.60876,-1.5675 2.4375,-2.375c3.17798,-3.25549 3.68622,-4.86215 4.125,-9.25c0.0838,-0.81726 0.16757,-1.63452 0.25391,-2.47656c0.06058,-0.6265 0.12119,-1.25296 0.18359,-1.89844z"/>
  <path id="svg_131" fill="url(#svg_338)" d="m622,300c0.33002,0.66 0.65997,1.32001 1,2c-1.05188,0.08249 -2.10376,0.16501 -3.1875,0.25c-4.08295,0.80322 -5.82477,1.94336 -8.8125,4.75c-0.33002,-0.32999 -0.65997,-0.66 -1,-1c-0.98999,0.98999 -1.97998,1.98001 -3,3c1.35089,-4.42117 3.16504,-6.44333 7,-9c2.97198,-1.17078 5.0058,-1.13571 8,0z"/>
  <path id="svg_132" fill="url(#svg_338)" d="m356,229c2.0625,0.4375 2.0625,0.4375 4,1c-0.5195,0.41251 -1.03897,0.825 -1.57422,1.25c-4.46167,3.69469 -7.68161,7.18327 -10.51563,12.24609c-0.30035,0.49629 -0.60071,0.99258 -0.91016,1.50391c-0.32999,0 -0.66,0 -1,0c-0.44736,-3.5033 -0.19199,-4.73781 1.93359,-7.64063c0.82629,-0.8611 1.65259,-1.72218 2.50391,-2.60938c0.8237,-0.87141 1.64743,-1.74281 2.49609,-2.64063c2.06641,-2.10938 2.06641,-2.10938 3.06641,-3.10938z"/>
  <path id="svg_133" fill="url(#svg_338)" d="m362,422c1.36365,0.95825 2.70233,1.95413 4,3c-0.85724,0.04898 -1.71445,0.09796 -2.59766,0.14844c-6.06992,0.39691 -11.6463,0.84363 -17.40234,2.85156c1,-3 1,-3 2.85547,-3.94922c8.51733,-2.69644 8.51733,-2.69644 13.14453,-2.05078z"/>
  <path id="svg_134" fill="url(#svg_338)" d="m404,248c0.32999,0.99001 0.66,1.98 1,3c0.66,0 1.32001,0 2,0c0.38095,10.89948 0.38095,10.89948 -2,15c-0.66,0.32999 -1.32001,0.66 -2,1c0.32999,-6.26999 0.66,-12.53999 1,-19z"/>
  <path id="svg_135" fill="url(#svg_338)" d="m471,192c0.66,0.99001 1.32001,1.98 2,3c-6.26999,0 -12.54001,0 -19,0c0.66,-0.33 1.32001,-0.66 2,-1c0,-0.66 0,-1.32001 0,-2c4.97482,-1.14804 10.04861,-1.38638 15,0z"/>
  <path id="svg_136" fill="url(#svg_338)" d="m564,229c0.65997,0.33 1.32001,0.66 2,1c-2.68286,3.47195 -5.82288,4.09496 -10,5c-2.33215,0.07404 -4.66858,0.09515 -7,0c0,-0.66 0,-1.32001 0,-2c-0.65997,-0.33 -1.32001,-0.66 -2,-1c0.89203,-0.04898 1.78406,-0.09798 2.70313,-0.14844c1.75568,-0.11215 1.75568,-0.11215 3.54688,-0.22656c1.74023,-0.10442 1.74023,-0.10442 3.51563,-0.21094c2.98157,-0.3817 4.63733,-1.04405 7.23438,-2.41406z"/>
  <path id="svg_137" fill="url(#svg_338)" d="m740.0625,717.75c0.87787,-0.02576 1.75568,-0.05157 2.66016,-0.07813c0.75153,0.10828 1.50305,0.21655 2.27734,0.32813c0.65997,0.98999 1.32001,1.97998 2,3c-2.27075,0.16797 -4.54156,0.33435 -6.8125,0.5c-1.89685,0.13922 -1.89685,0.13922 -3.83203,0.28125c-2.11523,0.13788 -4.23572,0.21875 -6.35547,0.21875c2.80896,-4.21344 5.28784,-4.16565 10.0625,-4.25z"/>
  <path id="svg_138" fill="url(#svg_338)" d="m402,595c0.32999,0 0.66,0 1,0c0.28183,3.047 0.28134,4.5722 -1.42578,7.16797c-0.62262,0.66644 -1.24524,1.33289 -1.88672,2.01953c-0.61487,0.67419 -1.22977,1.34839 -1.86328,2.04297c-2.45648,2.38281 -4.02869,3.73254 -7.51172,3.89453c-1.14468,-0.06189 -1.14468,-0.06189 -2.3125,-0.125c5,-4 5,-4 7.5625,-5.8125c3.08893,-2.77216 4.53027,-5.51434 6.4375,-9.1875z"/>
  <path id="svg_139" fill="url(#svg_338)" d="m288,526c3,2 3,2 3.6875,4.125c0.39728,3.65491 0.37482,7.19861 0.3125,10.875c-0.66,0 -1.32001,0 -2,0c-0.32999,1.32001 -0.66,2.64001 -1,4c-0.32999,-6.27002 -0.66,-12.53998 -1,-19z"/>
  <path id="svg_140" fill="url(#svg_338)" d="m367,425c4.34152,0.1059 6.69843,1.24896 9.8125,4.125c3.34955,3.56351 4.0889,6.04291 4.1875,10.875c-4,-5 -4,-5 -5.875,-7.5625c-2.41364,-2.76859 -5.03989,-4.47424 -8.125,-6.4375c0,-0.32999 0,-0.66 0,-1z"/>
  <path id="svg_141" fill="url(#svg_338)" d="m489,229c0.32999,0 0.66,0 1,0c-0.12537,6.01704 -2.10037,8.91148 -6.01563,13.39844c-2.32318,1.87503 -4.05237,2.2477 -6.98438,2.60156c0.72189,-0.68062 1.44376,-1.36125 2.1875,-2.0625c4.03696,-4.03696 7.50555,-8.6944 9.8125,-13.9375z"/>
  <path id="svg_142" fill="url(#svg_338)" d="m532,218c2,1 2,1 3.625,4.25c2.13318,3.957 4.8916,5.66974 8.76563,7.80469c0.53107,0.31195 1.06219,0.6239 1.60938,0.94531c0,0.33 0,0.66 0,1c-3.8736,0 -5.99164,-0.16685 -9.02344,-2.67188c-4.90735,-5.32797 -4.90735,-5.32797 -5.16797,-9.09375c0.06317,-0.73735 0.12634,-1.47469 0.19141,-2.23438z"/>
  <path id="svg_143" fill="url(#svg_338)" d="m655,759c12.28607,-0.92017 12.28607,-0.92017 16.48828,1.33594c1.88672,1.66406 1.88672,1.66406 4.51172,4.66406c-0.33002,0.98999 -0.65997,1.97998 -1,3c-0.8869,-0.94873 -1.77374,-1.89752 -2.6875,-2.875c-4.98615,-4.36804 -10.92755,-4.56812 -17.3125,-5.125c0,-0.33002 0,-0.65997 0,-1z"/>
  <path id="svg_144" fill="url(#svg_338)" d="m331,346c0.32999,0 0.66,0 1,0c0.5513,3.7489 0.06375,4.91074 -2.1875,8.0625c-2.40659,2.62411 -4.80072,5.00687 -7.8125,6.9375c-2.15234,-0.40234 -2.15234,-0.40234 -4,-1c0.68707,-0.59167 1.37415,-1.18335 2.08203,-1.79297c0.90106,-0.79019 1.80212,-1.58038 2.73047,-2.39453c0.89331,-0.77731 1.78665,-1.5546 2.70703,-2.35547c2.3736,-2.35117 3.85229,-4.56537 5.48047,-7.45703z"/>
  <path id="svg_145" fill="url(#svg_338)" d="m224,397c1.32001,0.32999 2.64,0.66 4,1c-0.99001,0.32999 -1.98,0.66 -3,1c-1.00916,1.76593 -1.00916,1.76593 -2,4c-0.66,0.96939 -1.32001,1.93875 -2,2.9375c-1.74461,2.67145 -2.94373,5.06973 -4,8.0625c-0.33,0 -0.66,0 -1,0c-0.47635,-3.17566 -0.42737,-5.29959 1.26563,-8.07422c1.53456,-2.01505 3.125,-3.97034 4.73438,-5.92578c0.66,-0.98999 1.32001,-1.98001 2,-3z"/>
  <path id="svg_146" fill="url(#svg_338)" d="m373,565c-2.51932,2.01544 -5.02881,4.02124 -7.625,5.9375c-2.4801,2.15375 -3.85052,4.17401 -5.375,7.0625c-0.70703,-1.73828 -0.70703,-1.73828 -1,-4c1.36328,-2.10547 1.36328,-2.10547 3.3125,-4.1875c0.6355,-0.69482 1.27103,-1.38959 1.92578,-2.10547c2.90958,-2.81927 4.82019,-2.81073 8.76172,-2.70703z"/>
  <path id="svg_147" fill="url(#svg_338)" d="m392,231c3.12375,0.3291 4.67529,0.70168 7.01953,2.85547c4.88303,6.35114 4.88303,6.35114 5.41797,10.70703c-0.14438,0.80437 -0.28876,1.60875 -0.4375,2.4375c-2.68875,-3.51299 -5.09662,-7.16745 -7.5,-10.87891c-1.36713,-1.93323 -2.772,-3.51137 -4.5,-5.12109z"/>
  <path id="svg_148" fill="url(#svg_338)" d="m676,766c3.49097,2.69757 4.18121,5.76947 5,10c-0.12567,3.04034 -0.4967,6.00055 -1,9c-0.33002,0 -0.65997,0 -1,0c-0.50476,-2.41577 -1.00397,-4.83246 -1.5,-7.25c-0.14307,-0.68188 -0.28619,-1.36383 -0.43359,-2.06641c-0.67889,-3.3299 -1.06641,-6.26691 -1.06641,-9.68359z"/>
  <path id="svg_149" fill="url(#svg_338)" d="m338,456c0.70126,0.72186 1.4025,1.44376 2.125,2.1875c2.80304,2.81104 5.80972,5.29214 8.875,7.8125c0.66,0.66 1.32001,1.32001 2,2c-2.73694,0.49762 -4.46497,0.3244 -6.85547,-1.125c-3.29803,-2.61124 -4.93231,-4.11102 -6.08203,-8.25c-0.03094,-1.29938 -0.03094,-1.29938 -0.0625,-2.625z"/>
  <path id="svg_150" fill="url(#svg_338)" d="m294,292c-2.7919,1.42767 -5.61603,2.70786 -8.5,3.9375c-3.15366,1.38721 -5.87796,2.78244 -8.5,5.0625c-0.66,-0.32999 -1.32001,-0.66 -2,-1c5.93893,-6.46295 10.41763,-8.44391 19,-8z"/>
  <path id="svg_151" fill="url(#svg_338)" d="m544,193c-1.11969,1.00594 -2.24591,2.00458 -3.375,3c-0.62646,0.55687 -1.25299,1.11375 -1.89844,1.6875c-1.72656,1.3125 -1.72656,1.3125 -3.72656,1.3125c-0.98999,3.465 -0.98999,3.465 -2,7c-0.33002,0 -0.65997,0 -1,0c-0.45264,-3.09293 -0.4834,-5.22279 1.19531,-7.92188c6.10724,-7.42686 6.10724,-7.42686 10.80469,-5.07813z"/>
  <path id="svg_152" fill="url(#svg_338)" d="m463,324c0.32999,0 0.66,0 1,0c0.10883,2.37625 0.18768,4.74744 0.25,7.125c0.05026,0.99774 0.05026,0.99774 0.10156,2.01563c0.10034,5.117 -1.00595,8.01074 -4.35156,11.85938c-2.25,0.875 -2.25,0.875 -4,1c0.63229,-0.87399 0.63229,-0.87399 1.27734,-1.76563c4.49561,-6.72754 5.69501,-12.18896 5.72266,-20.23438z"/>
  <path id="svg_153" fill="url(#svg_338)" d="m358,282c0.73862,0.20496 1.47726,0.40991 2.23828,0.62109c6.935,1.84171 13.59921,2.97003 20.76172,3.37891c0,0.32999 0,0.66 0,1c-2.93756,0.02695 -5.87488,0.04681 -8.8125,0.0625c-0.83337,0.00839 -1.66675,0.01675 -2.52539,0.02539c-1.20367,0.00482 -1.20367,0.00482 -2.43164,0.00977c-1.10757,0.00784 -1.10757,0.00784 -2.23755,0.01587c-1.99292,-0.11353 -1.99292,-0.11353 -4.99292,-1.11353c-1.1875,-2.0625 -1.1875,-2.0625 -2,-4z"/>
  <path id="svg_154" fill="url(#svg_338)" d="m638,682c0.65997,0.47437 1.32001,0.94873 2,1.4375c3.79327,1.97571 6.75525,2.20276 11,2.5625c0,0.98999 0,1.97998 0,3c-4.27545,0.34204 -6.59662,0.21271 -10.4375,-1.8125c-0.84564,-0.72186 -1.69122,-1.44373 -2.5625,-2.1875c0,-0.98999 0,-1.97998 0,-3z"/>
  <path id="svg_155" fill="url(#svg_338)" d="m782,512c2.31,0 4.62,0 7,0c-0.59814,0.22687 -1.19623,0.45374 -1.8125,0.6875c-2.86853,1.72113 -3.8996,3.23584 -5.1875,6.3125c0.69482,2.78223 0.69482,2.78223 2,5c-0.98999,0 -1.97998,0 -3,0c-1.1875,-2.625 -1.1875,-2.625 -2,-6c1.375,-3.375 1.375,-3.375 3,-6z"/>
  <path id="svg_156" fill="url(#svg_338)" d="m337,438c1.53268,3.06534 1.10275,6.26755 1.0625,9.625c-0.00452,0.70642 -0.00903,1.41281 -0.01367,2.14063c-0.01178,1.74481 -0.02972,3.48962 -0.04883,5.23438c-0.98999,-0.32999 -1.98001,-0.66 -3,-1c-1.01382,-5.77881 -1.02676,-9.48267 1,-15c0.32999,-0.32999 0.66,-0.66 1,-1z"/>
  <path id="svg_157" fill="url(#svg_338)" d="m573,204c2.81818,2.81819 2.40515,5.54105 2.4375,9.3125c0.03998,1.31613 0.0799,2.63226 0.12109,3.98828c-0.67651,4.48007 -2.11078,5.88326 -5.55859,8.69922c0,-3 0,-3 1.5,-6.5c2.03058,-5.1098 1.76886,-10.0825 1.5,-15.5z"/>
  <path id="svg_158" fill="url(#svg_338)" d="m235,460c0.84563,0.20496 1.69125,0.40991 2.5625,0.62109c6.14349,1.45908 12.15141,2.76263 18.4375,3.37891c0,0.32999 0,0.66 0,1c-2.20805,0.05444 -4.4165,0.09299 -6.625,0.125c-1.22977,0.02319 -2.45953,0.04642 -3.72656,0.07031c-3.63962,-0.19485 -6.33344,-0.69211 -9.64844,-2.19531c-0.33,-0.98999 -0.66,-1.98001 -1,-3z"/>
  <path id="svg_159" fill="url(#svg_338)" d="m515,304c2,2 2,2 2.375,4.75c-0.4704,4.0766 -1.75641,6.12222 -4.375,9.25c-2.25,0.875 -2.25,0.875 -4,1c0.61874,-0.98999 1.23749,-1.98001 1.875,-3c2.24762,-3.89746 3.20117,-7.61182 4.125,-12z"/>
  <path id="svg_160" fill="url(#svg_338)" d="m561,191c5.06927,0.24139 7.53625,1.76759 10.875,5.36719c1.56104,2.26564 1.59607,3.96358 1.125,6.63281c-0.495,-0.70125 -0.98999,-1.4025 -1.5,-2.125c-2.70074,-3.10583 -5.54858,-5.27435 -8.89063,-7.64063c-0.53107,-0.40735 -1.06219,-0.81468 -1.60938,-1.23438c0,-0.33 0,-0.66 0,-1z"/>
  <path id="svg_161" fill="url(#svg_338)" d="m567,765c-2.91809,1.56348 -5.75543,2.59784 -8.9375,3.5c-3.44165,1.00146 -6.76813,2.07245 -10.0625,3.5c0.92987,-2.32471 1.61725,-3.73065 3.6875,-5.1875c4.98889,-1.75287 10.06812,-1.94043 15.3125,-1.8125z"/>
  <path id="svg_162" fill="url(#svg_338)" d="m516,671c0.98999,0.33002 1.97998,0.65997 3,1c1.07983,5.29132 0.92609,8.93134 -1,14c-0.98999,0.495 -0.98999,0.495 -2,1c0,-5.28003 0,-10.56 0,-16z"/>
  <path id="svg_163" fill="url(#svg_338)" d="m449,195c1.32001,0.33 2.64001,0.66 4,1c-6.435,4.95 -6.435,4.95 -13,10c0,-3 0,-3 1.82813,-5.07813c0.79922,-0.71672 1.59845,-1.43344 2.42188,-2.17188c0.78891,-0.72704 1.57782,-1.45406 2.39063,-2.20313c0.77859,-0.51047 1.55719,-1.02094 2.35938,-1.54688z"/>
  <path id="svg_164" fill="url(#svg_338)" d="m792,515c0.65997,0 1.32001,0 2,0c0.67462,2.96844 1.14844,5.31348 0.5,8.3125c-2.37457,2.67139 -5.07343,2.43365 -8.5,2.6875c0.80438,-0.51563 1.60876,-1.03125 2.4375,-1.5625c3.22699,-3.06958 3.31146,-5.08618 3.5625,-9.4375z"/>
  <path id="svg_165" fill="url(#svg_338)" d="m452,401c1.41623,-0.05447 2.83307,-0.09302 4.25,-0.125c0.78891,-0.02319 1.57782,-0.04642 2.39063,-0.07031c2.63586,0.2182 4.14386,0.76566 6.35938,2.19531c2.15195,3.22791 2.20087,4.284 2,8c-3,-3.75 -3,-3.75 -3,-6c-5.94,-1.48499 -5.94,-1.48499 -12,-3c0,-0.32999 0,-0.66 0,-1z"/>
  <path id="svg_166" fill="url(#svg_338)" d="m495,370c0.32999,0.98999 0.66,1.98001 1,3c-4.95001,-0.32999 -9.89999,-0.66 -15,-1c2.40817,-4.81631 9.6817,-3.43942 14,-2z"/>
  <path id="svg_167" fill="url(#svg_338)" d="m620,221c0.33002,0.66 0.65997,1.32001 1,2c-0.65747,1.33788 -1.32568,2.67052 -2,4c-0.44812,2.35565 -0.44812,2.35565 -0.625,4.75c-0.07477,0.79922 -0.14954,1.59843 -0.22656,2.42188c-0.04901,0.60329 -0.09796,1.20656 -0.14844,1.82813c-2,-2 -2,-2 -2.25,-5.875c0.08051,-3.16882 0.34918,-5.48495 2.25,-8.125c0.65997,-0.33 1.32001,-0.66 2,-1z"/>
  <path id="svg_168" fill="url(#svg_338)" d="m558,189c0.33002,0.66 0.65997,1.32001 1,2c-4.62,0.33 -9.23999,0.66 -14,1c0.33002,-0.99001 0.65997,-1.98 1,-3c4.25061,-1.15926 7.70056,-0.90948 12,0z"/>
  <path id="svg_169" fill="url(#svg_338)" d="m573,677c-0.55688,0.26813 -1.11377,0.53625 -1.6875,0.8125c-4.40851,2.26385 -7.91638,4.53986 -11.3125,8.1875c0.4776,-5.37311 0.4776,-5.37311 2.5625,-7.875c3.58087,-1.65271 6.51385,-1.32117 10.4375,-1.125z"/>
  <path id="svg_170" fill="url(#svg_338)" d="m340,761c3.95999,1.97998 7.92001,3.96002 12,6c0,0.33002 0,0.65997 0,1c-3.95169,0.37634 -5.82294,0.09509 -9.375,-1.8125c-0.86624,-0.72186 -1.73251,-1.44373 -2.625,-2.1875c0,-0.98999 0,-1.97998 0,-3z"/>
  <path id="svg_171" fill="url(#svg_338)" d="m399,752c0.66797,1.79297 0.66797,1.79297 1,4c-1.07422,1.73828 -1.07422,1.73828 -2.6875,3.3125c-0.77924,0.79858 -0.77924,0.79858 -1.57422,1.61328c-1.73828,1.07422 -1.73828,1.07422 -3.94531,0.74219c-0.59167,-0.22046 -1.18335,-0.44086 -1.79297,-0.66797c1.39218,-1.11377 1.39218,-1.11377 2.8125,-2.25c2.45877,-2.04028 4.40399,-4.07471 6.1875,-6.75z"/>
  <path id="svg_172" fill="url(#svg_338)" d="m288,413c0.98999,0.32999 1.98001,0.66 3,1c0,6.26999 0,12.54001 0,19c-0.32999,0 -0.66,0 -1,0c-0.66,-6.60001 -1.32001,-13.20001 -2,-20z"/>
  <path id="svg_173" fill="url(#svg_338)" d="m498,375c3,1 3,1 4.25,3.0625c1.01453,3.9736 0.43365,6.90384 -0.25,10.9375c-0.32999,0 -0.66,0 -1,0c-0.98999,-4.62 -1.98001,-9.23999 -3,-14z"/>
  <path id="svg_174" fill="url(#svg_338)" d="m265,342c2.40576,2.18518 3.79535,4.25919 5.1875,7.1875c0.34418,0.71542 0.68835,1.43085 1.04297,2.16797c0.25394,0.54269 0.5079,1.08539 0.76953,1.64453c-3.78125,-0.71875 -3.78125,-0.71875 -5.75,-3.25c-1.30518,-2.8714 -1.51648,-4.64096 -1.25,-7.75z"/>
  <path id="svg_175" fill="url(#svg_338)" d="m421,325c0.32999,0 0.66,0 1,0c0.50378,2.26999 1.0029,4.54102 1.5,6.8125c0.27844,1.26456 0.55688,2.52914 0.84375,3.83203c0.65625,3.35547 0.65625,3.35547 0.65625,6.35547c-2.94852,-2.34488 -3.93036,-3.42334 -4.39063,-7.23438c0.04642,-1.16016 0.0928,-2.32031 0.14063,-3.51563c0.0361,-1.17047 0.0722,-2.34094 0.10938,-3.54688c0.04642,-0.89203 0.0928,-1.78406 0.14063,-2.70313z"/>
  <path id="svg_176" fill="url(#svg_338)" d="m271,304c0,4.01093 -1.76102,5.74329 -4,9c-0.32999,0.98999 -0.66,1.98001 -1,3c-0.98999,0.32999 -1.98001,0.66 -3,1c1.31796,-4.61288 3.13388,-8.14865 6,-12c0.66,-0.32999 1.32001,-0.66 2,-1z"/>
  <path id="svg_177" fill="url(#svg_338)" d="m315,677c0.66,0.33002 1.32001,0.65997 2,1c-5.82321,5.97644 -5.82321,5.97644 -10.125,6.0625c-0.94876,-0.02063 -1.89749,-0.04126 -2.875,-0.0625c2.06213,-2.06213 3.97037,-3.25433 6.5,-4.6875c0.79407,-0.45764 1.58813,-0.91522 2.40625,-1.38672c0.69095,-0.30548 1.38187,-0.61102 2.09375,-0.92578z"/>
  <path id="svg_178" fill="url(#svg_338)" d="m634,399c0.2475,0.57751 0.495,1.155 0.75,1.75c1.85736,3.34326 3.80756,5.7692 7.5,7c0.57751,0.08249 1.15503,0.16501 1.75,0.25c0,0.66 0,1.32001 0,2c-6.40704,-0.48355 -6.40704,-0.48355 -8.9375,-2.6875c-1.33398,-2.90338 -1.27789,-5.15381 -1.0625,-8.3125z"/>
  <path id="svg_179" fill="url(#svg_338)" d="m411,379c0.32999,0 0.66,0 1,0c0.17563,4.47861 0.22086,8.02585 -2,12c-0.98999,0.32999 -1.98001,0.66 -3,1c0.47488,-1.98019 0.95502,-3.95914 1.4375,-5.9375c0.26685,-1.10214 0.53366,-2.20428 0.80859,-3.33984c0.75391,-2.72266 0.75391,-2.72266 1.75391,-3.72266z"/>
  <path id="svg_180" fill="url(#svg_338)" d="m566,358c0.65997,0 1.32001,0 2,0c-0.65997,3.95999 -1.32001,7.92001 -2,12c-0.33002,-0.66 -0.65997,-1.32001 -1,-2c-0.65997,0 -1.32001,0 -2,0c0.75,-6.625 0.75,-6.625 3,-10z"/>
  <path id="svg_181" fill="url(#svg_338)" d="m236,575c1.93817,0.1142 3.87555,0.24176 5.8125,0.375c1.07895,0.06958 2.15788,0.13922 3.26953,0.21094c2.91797,0.41406 2.91797,0.41406 5.91797,2.41406c-1.93681,0.08105 -3.87459,0.13922 -5.8125,0.1875c-1.07895,0.03479 -2.15788,0.06958 -3.26953,0.10547c-2.91797,-0.29297 -2.91797,-0.29297 -4.80469,-1.80469c-0.55107,-0.73669 -0.55107,-0.73669 -1.11328,-1.48828z"/>
  <path id="svg_182" fill="url(#svg_338)" d="m333,514c0.32999,0 0.66,0 1,0c0,4.28998 0,8.58002 0,13c-3.16129,-4.21509 -3.33676,-5.06073 -3,-10c0.66,0 1.32001,0 2,0c0,-0.98999 0,-1.97998 0,-3z"/>
  <path id="svg_183" fill="url(#svg_338)" d="m289,434c0.32999,0 0.66,0 1,0c0.30191,7.85001 0.30191,7.85001 -2,11c-0.98999,0.32999 -1.98001,0.66 -3,1c0.4769,-1.62567 0.9566,-3.25052 1.4375,-4.875c0.26685,-0.90491 0.53366,-1.80984 0.80859,-2.74219c0.75391,-2.38281 0.75391,-2.38281 1.75391,-4.38281z"/>
  <path id="svg_184" fill="url(#svg_338)" d="m274,355c3.63,2.31 7.26001,4.62 11,7c-4,1 -4,1 -5.92188,0.10938c-0.60327,-0.44861 -1.20657,-0.89719 -1.82813,-1.35938c-0.61359,-0.43829 -1.2272,-0.87656 -1.85938,-1.32813c-1.39063,-1.42188 -1.39063,-1.42188 -1.39063,-4.42188z"/>
  <path id="svg_185" fill="url(#svg_338)" d="m710,275c0.33002,0.98999 0.65997,1.98001 1,3c-1.375,2 -1.375,2 -4,4c-3.35803,0.35791 -6.63538,0.23117 -10,0c0,-0.32999 0,-0.66 0,-1c0.60327,-0.09796 1.20654,-0.19595 1.82813,-0.29688c4.87762,-0.9126 8.01013,-1.57907 11.17188,-5.70313z"/>
  <path id="svg_186" fill="url(#svg_338)" d="m724,730c0.33002,0 0.65997,0 1,0c0.33002,4.62 0.65997,9.23999 1,14c-0.98999,-0.33002 -1.97998,-0.65997 -3,-1c-0.0271,-1.60406 -0.04645,-3.20825 -0.0625,-4.8125c-0.0116,-0.89331 -0.02319,-1.78662 -0.03516,-2.70703c0.09766,-2.48047 0.09766,-2.48047 1.09766,-5.48047z"/>
  <path id="svg_187" fill="url(#svg_338)" d="m484,662c1.32001,0.33002 2.64001,0.65997 4,1c-2.31,2.64001 -4.62,5.28003 -7,8c-0.32999,-1.32001 -0.66,-2.64001 -1,-4c1.9375,-2.75 1.9375,-2.75 4,-5z"/>
  <path id="svg_188" fill="url(#svg_338)" d="m299,605c0,0.33002 0,0.65997 0,1c-5.60999,0 -11.22,0 -17,0c0,-0.33002 0,-0.65997 0,-1c6.36609,-1.66516 10.79892,-2.42651 17,0z"/>
  <path id="svg_189" fill="url(#svg_338)" d="m453,347c0.66,0.32999 1.32001,0.66 2,1c-0.98999,1.48499 -0.98999,1.48499 -2,3c-2.62698,0.22137 -5.00894,0.28162 -7.625,0.1875c-0.70642,-0.01355 -1.41281,-0.02707 -2.14063,-0.04102c-1.74512,-0.03537 -3.48984,-0.08917 -5.23438,-0.14648c0,-0.32999 0,-0.66 0,-1c0.91522,-0.13278 1.83047,-0.26556 2.77344,-0.40234c1.18851,-0.17661 2.37704,-0.35321 3.60156,-0.53516c1.18335,-0.17401 2.36673,-0.34805 3.58594,-0.52734c2.94608,-0.36978 2.94608,-0.36978 5.03906,-1.53516z"/>
  <path id="svg_190" fill="url(#svg_338)" d="m672,333c-0.55432,0.13535 -1.10858,0.27069 -1.67969,0.41016c-2.30133,0.68384 -4.25061,1.36493 -6.32031,2.58984c-1.61133,3.54865 -1.61133,3.54865 -2,7c-0.33002,0 -0.65997,0 -1,0c-0.19531,-6.05469 -0.19531,-6.05469 0,-8c3.24731,-3.24734 6.74548,-3.41818 11,-2z"/>
  <path id="svg_191" fill="url(#svg_338)" d="m591,794c0.33002,0 0.65997,0 1,0c0.08124,1.60333 0.13928,3.20782 0.1875,4.8125c0.03479,0.89331 0.06958,1.78662 0.10547,2.70703c-0.34216,2.89697 -1.04694,3.70599 -3.29297,5.48047c-1.18414,-3.55243 -0.69537,-4.6983 0.4375,-8.1875c0.28748,-0.90106 0.57489,-1.80212 0.87109,-2.73047c0.22815,-0.68707 0.4563,-1.37415 0.69141,-2.08203z"/>
  <path id="svg_192" fill="url(#svg_338)" d="m449,746c-3.23523,2.48865 -6.59259,4.75421 -10,7c-0.66,-0.33002 -1.32001,-0.65997 -2,-1c6,-6.1579 6,-6.1579 12,-6z"/>
  <path id="svg_193" fill="url(#svg_338)" d="m404,394c0.66,0.32999 1.32001,0.66 2,1c-0.98093,2.45236 -1.68704,3.78094 -3.875,5.3125c-2.125,0.6875 -2.125,0.6875 -6.125,-0.3125c2.64001,-1.98001 5.28,-3.95999 8,-6z"/>
  <path id="svg_194" fill="url(#svg_338)" d="m398,359c4.31393,0.47931 6.16571,1.74579 9,5c-0.32999,0.98999 -0.66,1.98001 -1,3c-1.49741,-1.26953 -2.99478,-2.53906 -4.49219,-3.80859c-1.51376,-1.27924 -1.51376,-1.27924 -3.50781,-2.19141c0,-0.66 0,-1.32001 0,-2z"/>
  <path id="svg_195" fill="url(#svg_338)" d="m414,659c1.66925,0.97473 3.33536,1.9549 5,2.9375c1.39218,0.81793 1.39218,0.81793 2.8125,1.65234c0.72189,0.46533 1.44376,0.93073 2.1875,1.41016c0,0.33002 0,0.65997 0,1c-3.4826,0.39801 -4.80798,0.12372 -7.8125,-1.8125c-0.72186,-0.72186 -1.44376,-1.44373 -2.1875,-2.1875c0,-0.98999 0,-1.97998 0,-3z"/>
  <path id="svg_196" fill="url(#svg_338)" d="m628,246c3.29999,0 6.59998,0 10,0c-0.98999,1.485 -0.98999,1.485 -2,3c-3,0.375 -3,0.375 -6,0c-0.65997,-0.99001 -1.32001,-1.98 -2,-3z"/>
  <path id="svg_197" fill="url(#svg_338)" d="m436,224c1.50562,2.8541 2.63217,5.68124 3.625,8.75c0.26038,0.79922 0.52078,1.59843 0.78906,2.42188c0.19336,0.60329 0.38672,1.20656 0.58594,1.82813c-3,-1 -3,-1 -4.1875,-2.5625c-1.18292,-3.54872 -0.93692,-6.70451 -0.8125,-10.4375z"/>
  <path id="svg_198" fill="url(#svg_338)" d="m748,721c2.27032,0.39142 3.83411,0.88739 5.75,2.1875c1.79266,2.59937 1.45514,4.7359 1.25,7.8125c-2.16864,-2.16864 -3.45459,-4.35992 -5,-7c-0.65997,-0.98999 -1.32001,-1.97998 -2,-3z"/>
  <path id="svg_199" fill="url(#svg_338)" d="m285,555c0.32999,1.32001 0.66,2.64001 1,4c-1.9375,2.75 -1.9375,2.75 -4,5c-0.98999,-0.33002 -1.98001,-0.65997 -3,-1c1.98001,-2.64001 3.95999,-5.28003 6,-8z"/>
  <path id="svg_200" fill="url(#svg_338)" d="m364,544c-3.2038,2.13586 -4.01941,2.23132 -7.6875,2.125c-1.21237,-0.0271 -1.21237,-0.0271 -2.44922,-0.05469c-0.92233,-0.03479 -0.92233,-0.03479 -1.86328,-0.07031c0,-0.65997 0,-1.32001 0,-2c8.57144,-1.28571 8.57144,-1.28571 12,0z"/>
  <path id="svg_201" fill="url(#svg_338)" d="m622,300c0.33002,0.66 0.65997,1.32001 1,2c-3.29999,0.32999 -6.59998,0.66 -10,1c0.33002,-0.98999 0.65997,-1.98001 1,-3c2.91553,-1.20642 5.06555,-1.11307 8,0z"/>
  <path id="svg_202" fill="url(#svg_338)" d="m694,256c2.16406,-0.29297 2.16406,-0.29297 4.625,-0.1875c0.81726,0.02707 1.63452,0.05414 2.47656,0.08203c0.9397,0.05222 0.9397,0.05222 1.89844,0.10547c0,0.66 0,1.32001 0,2c-7.625,1 -7.625,1 -11,1c0.65997,-0.98999 1.32001,-1.98001 2,-3z"/>
  <path id="svg_203" fill="url(#svg_338)" d="m618,237c3,3 6,6 9,9c-6.9231,-2 -6.9231,-2 -9,-5c0,-1.32001 0,-2.64 0,-4z"/>
  <path id="svg_204" fill="url(#svg_338)" d="m672,457c0.65997,0.32999 1.32001,0.66 2,1c0,0.66 0,1.32001 0,2c-0.98999,0.495 -0.98999,0.495 -2,1c0,1.64999 0,3.29999 0,5c-0.98999,-0.32999 -1.97998,-0.66 -3,-1c-0.3692,-4.55386 -0.3692,-4.55386 1.5,-6.8125c0.495,-0.39188 0.98999,-0.78375 1.5,-1.1875z"/>
  <path id="svg_205" fill="url(#svg_338)" d="m341,429c1.32001,0.32999 2.64001,0.66 4,1c-1.98001,2.31 -3.95999,4.62 -6,7c-0.32999,-1.32001 -0.66,-2.64001 -1,-4c1.4375,-2.25 1.4375,-2.25 3,-4z"/>
  <path id="svg_206" fill="url(#svg_338)" d="m336,338c1,3 1,3 0.22266,5.04297c-0.38284,0.7077 -0.76572,1.41541 -1.16016,2.14453c-0.38028,0.71542 -0.76056,1.43085 -1.15234,2.16797c-0.45053,0.81403 -0.45053,0.81403 -0.91016,1.64453c-0.32999,0 -0.66,0 -1,0c0.32999,-2.64001 0.66,-5.28 1,-8c0.98999,-0.32999 1.98001,-0.66 3,-1c0,-0.66 0,-1.32001 0,-2z"/>
  <path id="svg_207" fill="url(#svg_338)" d="m475,247c-2,2 -2,2 -4.82031,2.19531c-1.09055,-0.02321 -2.18109,-0.0464 -3.30469,-0.07031c-1.0957,-0.01805 -2.19141,-0.03609 -3.32031,-0.05469c-0.84305,-0.02321 -1.6861,-0.0464 -2.55469,-0.07031c0,-0.33 0,-0.66 0,-1c1.58087,-0.36505 3.16483,-0.71661 4.75,-1.0625c0.88171,-0.19724 1.76343,-0.39445 2.67188,-0.59766c2.56491,-0.3381 4.14905,-0.15143 6.57813,0.66016z"/>
  <path id="svg_208" fill="url(#svg_338)" d="m446,242c5,2 5,2 10,4c0,0.66 0,1.32001 0,2c-3.61761,-0.32887 -5.55664,-0.62665 -8.375,-3c-1.625,-2 -1.625,-2 -1.625,-3z"/>
  <path id="svg_209" fill="url(#svg_338)" d="m625,215c4.28998,0 8.58002,0 13,0c0,0.33 0,0.66 0,1c-0.87012,0.07349 -0.87012,0.07349 -1.75781,0.14844c-4.6814,0.44806 -8.81702,1.14958 -13.24219,2.85156c0.65997,-1.32001 1.32001,-2.64 2,-4z"/>
  <path id="svg_210" fill="url(#svg_338)" d="m353,768c4.54807,-0.17834 7.87943,0.00214 12,2c0,0.33002 0,0.65997 0,1c-1.43839,-0.11456 -2.8757,-0.24207 -4.3125,-0.375c-0.80051,-0.06958 -1.60101,-0.13922 -2.42578,-0.21094c-2.26172,-0.41406 -2.26172,-0.41406 -5.26172,-2.41406z"/>
  <path id="svg_211" fill="url(#svg_338)" d="m433,756c0.66,0.33002 1.32001,0.65997 2,1c-2.20978,2.8194 -4.40063,5.53058 -7,8c0.49231,-5.53845 0.49231,-5.53845 3.0625,-7.875c0.63937,-0.37128 1.27875,-0.74249 1.9375,-1.125z"/>
  <path id="svg_212" fill="url(#svg_338)" d="m328,626c0.98999,0.33002 1.98001,0.65997 3,1c1.15775,3.47327 1.06866,6.36066 1,10c-2.31296,-2.31293 -2.49582,-3.47906 -3.125,-6.625c-0.16757,-0.81726 -0.33517,-1.63452 -0.50781,-2.47656c-0.12115,-0.62646 -0.24234,-1.25299 -0.36719,-1.89844z"/>
  <path id="svg_213" fill="url(#svg_338)" d="m675,459c0.98999,0 1.97998,0 3,0c0.625,2.3125 0.625,2.3125 1,5c-0.98999,1.48499 -0.98999,1.48499 -2,3c-1.32001,-0.32999 -2.64001,-0.66 -4,-1c0.98999,-0.66 1.97998,-1.32001 3,-2c-0.33002,-1.64999 -0.65997,-3.29999 -1,-5z"/>
  <path id="svg_214" fill="url(#svg_338)" d="m467,412c0.98999,0.32999 1.98001,0.66 3,1c-0.32999,2.97 -0.66,5.94 -1,9c-1.99554,-3.99109 -2.19547,-5.69986 -2,-10z"/>
  <path id="svg_215" fill="url(#svg_338)" d="m243.6875,387.9375c1.21236,0.01355 1.21236,0.01355 2.44922,0.02734c0.92232,0.0174 0.92232,0.0174 1.86328,0.03516c0,0.32999 0,0.66 0,1c-4.3206,1.09845 -8.61668,2.17813 -13,3c0.33,-0.98999 0.66,-1.98001 1,-3c2.88211,-0.96069 4.6985,-1.10583 7.6875,-1.0625z"/>
  <path id="svg_216" fill="url(#svg_338)" d="m387,763c0.66,0.33002 1.32001,0.65997 2,1c-2.06757,2.7973 -3.14441,3.02692 -6.6875,3.6875c-1.09311,0.10315 -2.18625,0.20624 -3.3125,0.3125c2.5462,-2.00061 4.98038,-3.79218 8,-5z"/>
  <path id="svg_217" fill="url(#svg_338)" d="m484,395c3.29999,0.32999 6.60001,0.66 10,1c-3.2081,2.13873 -4.27698,2.47729 -8,2c-0.66,-0.98999 -1.32001,-1.98001 -2,-3z"/>
  <path id="svg_218" fill="url(#svg_338)" d="m709,379c0.65997,0.32999 1.32001,0.66 2,1c0.125,2.375 0.125,2.375 0,5c-0.65997,0.66 -1.32001,1.32001 -2,2c-2.125,-0.375 -2.125,-0.375 -4,-1c0.98999,-0.66 1.97998,-1.32001 3,-2c0.72968,-2.56284 0.72968,-2.56284 1,-5z"/>
  <path id="svg_219" fill="url(#svg_338)" d="m427,344c3.33334,1.66666 6.66666,3.33334 10,5c0,0.32999 0,0.66 0,1c-3.3125,-0.1875 -3.3125,-0.1875 -7,-1c-1.9375,-2.5625 -1.9375,-2.5625 -3,-5z"/>
  <path id="svg_220" fill="url(#svg_338)" d="m640,781c0.26813,0.55688 0.53625,1.11377 0.8125,1.6875c1.1908,2.41071 1.1908,2.41071 2.875,4.9375c0.43311,0.78375 0.86627,1.5675 1.3125,2.375c-0.33002,0.65997 -0.65997,1.32001 -1,2c-2,-1.5625 -2,-1.5625 -4,-4c-0.25,-3.75 -0.25,-3.75 0,-7z"/>
  <path id="svg_221" fill="url(#svg_338)" d="m542,775c0.98999,0.33002 1.97998,0.65997 3,1c-1.32001,2.31 -2.64001,4.62 -4,7c-0.33002,0 -0.65997,0 -1,0c0.875,-6.875 0.875,-6.875 2,-8z"/>
  <path id="svg_222" fill="url(#svg_338)" d="m251,649c2.23447,4.03296 2.54497,7.44965 3,12c-2.10634,-1.70831 -2.93802,-2.52148 -3.29297,-5.26172c0.03481,-0.80054 0.06961,-1.60101 0.10547,-2.42578c0.02707,-0.80823 0.05414,-1.61646 0.08203,-2.44922c0.03481,-0.61487 0.06961,-1.22974 0.10547,-1.86328z"/>
  <path id="svg_223" fill="url(#svg_338)" d="m475,378c1.98361,2.91708 1.98761,4.12381 1.625,7.75c-0.20624,1.07251 -0.41251,2.14499 -0.625,3.25c-1.98361,-2.91708 -1.98761,-4.12381 -1.625,-7.75c0.20624,-1.07251 0.41251,-2.14499 0.625,-3.25z"/>
  <path id="svg_224" fill="url(#svg_338)" d="m317,361c-1,3 -1,3 -2.875,4.25c-2.125,0.75 -2.125,0.75 -5.125,-0.25c1.55746,-3.1149 4.59915,-4 8,-4z"/>
  <path id="svg_225" fill="url(#svg_338)" d="m642,790c2.64001,1.65002 5.28003,3.29999 8,5c-1.32001,0.33002 -2.64001,0.65997 -4,1c-2.25,-1.8125 -2.25,-1.8125 -4,-4c0,-0.65997 0,-1.32001 0,-2z"/>
  <path id="svg_226" fill="url(#svg_338)" d="m718,644c-1,2 -1,2 -3.375,2.8125c-2.625,0.1875 -2.625,0.1875 -4.4375,-1.25c-0.39191,-0.51563 -0.78375,-1.03125 -1.1875,-1.5625c6.75,-1.125 6.75,-1.125 9,0z"/>
  <path id="svg_227" fill="url(#svg_338)" d="m717,428c0.65997,0.32999 1.32001,0.66 2,1c0,2.31 0,4.62 0,7c-0.98999,-0.32999 -1.97998,-0.66 -3,-1c-0.8125,-1.875 -0.8125,-1.875 -1,-4c0.65997,-0.98999 1.32001,-1.98001 2,-3z"/>
  <path id="svg_228" fill="url(#svg_338)" d="m489,229c0.32999,0 0.66,0 1,0c-0.25,3.375 -0.25,3.375 -1,7c-2.0625,1.4375 -2.0625,1.4375 -4,2c1.19901,-3.08315 2.47699,-6.06279 4,-9z"/>
  <path id="svg_229" fill="url(#svg_338)" d="m447,658c0,3.51715 -0.82446,4.37122 -3,7c-1.32001,-0.33002 -2.64001,-0.65997 -4,-1c2.31,-1.97998 4.62,-3.96002 7,-6z"/>
  <path id="svg_230" fill="url(#svg_338)" d="m252,659c0.99001,0.33002 1.98,0.65997 3,1c1.1875,2.5625 1.1875,2.5625 2,5c-0.66,0.65997 -1.32001,1.32001 -2,2c-3,-4.625 -3,-4.625 -3,-8z"/>
  <path id="svg_231" fill="url(#svg_338)" d="m397,570c3,1.6875 3,1.6875 6,4c0.375,2.75 0.375,2.75 0,5c-2.40073,-2.88086 -4.4729,-5.56403 -6,-9z"/>
  <path id="svg_232" fill="url(#svg_338)" d="m786,393c-0.33002,0.98999 -0.65997,1.98001 -1,3c-2.31,0 -4.62,0 -7,0c0,-0.66 0,-1.32001 0,-2c5.75,-1 5.75,-1 8,-1z"/>
  <path id="svg_233" fill="url(#svg_338)" d="m745,319c0.98999,0.32999 1.97998,0.66 3,1c-0.45374,0.57751 -0.90747,1.155 -1.375,1.75c-1.46613,2.03003 -2.57361,3.98541 -3.625,6.25c-0.125,-3.375 -0.125,-3.375 0,-7c0.65997,-0.66 1.32001,-1.32001 2,-2z"/>
  <path id="svg_234" fill="url(#svg_338)" d="m322,300c2.47501,0.495 2.47501,0.495 5,1c0.32999,1.32001 0.66,2.64001 1,4c-3.16116,-1.36984 -3.99271,-1.98907 -6,-5z"/>
  <path id="svg_235" fill="url(#svg_338)" d="m563,823c1.65002,0 3.29999,0 5,0c0,0.33002 0,0.65997 0,1c-1.65002,0 -3.29999,0 -5,0c0,-0.33002 0,-0.65997 0,-1z"/>
  <path id="svg_236" fill="url(#svg_338)" d="m477,744c2,1 2,1 2,1l-2,-1z"/>
  <path id="svg_237" fill="#F4A27A"/>
  <path id="svg_238" fill="url(#svg_338)" d="m381,688c2,1 2,1 2,1l-2,-1z"/>
  <path id="svg_239" fill="url(#svg_338)" d="m433,669c2,1 2,1 2,1l-2,-1z"/>
  <path id="svg_240" fill="url(#svg_338)" d="m262,496c2,1 2,1 2,1l-2,-1z"/>
  <path id="svg_241" fill="url(#svg_338)" d="m233,496c2,1 2,1 2,1l-2,-1z"/>
  <path id="svg_242" fill="url(#svg_338)" d="m672,469c2,1 2,1 2,1l-2,-1z"/>
  <path id="svg_243" fill="#FDA378"/>
  <path id="svg_244" fill="#F19971"/>
  <path id="svg_245" fill="#EE9B6E"/>
  <path id="svg_246" fill="#EC976D"/>
  <path id="svg_247" fill="#F4A076"/>
  <path id="svg_248" fill="#F39C74"/>
  <path id="svg_249" fill="#EF9E73"/>
  <path id="svg_250" fill="#F29B72"/>
  <path id="svg_251" fill="#EE9970"/>
  <path id="svg_252" fill="#F8A176"/>
  <path id="svg_253" fill="#F6A076"/>
  <path id="svg_254" fill="#EE9A73"/>
  <path id="svg_255" fill="#DF956E"/>
  <path id="svg_256" fill="#F7A27A"/>
  <path id="svg_257" fill="#F09B73"/>
  <path id="svg_258" fill="#FAA377"/>
  <path id="svg_259" fill="#F9A074"/>
  <path id="svg_260" fill="#FDA478"/>
  <path id="svg_261" fill="#FCA278"/>
  <path id="svg_262" fill="#F8A277"/>
  <path id="svg_263" fill="#F6A075"/>
  <path id="svg_264" fill="#F29D73"/>
  <path id="svg_265" fill="#F59F73"/>
  <path id="svg_266" fill="#F8A279"/>
  <path id="svg_267" fill="#F69F76"/>
  <path id="svg_268" fill="#FDA277"/>
  <path id="svg_269" fill="#FBA276"/>
  <path id="svg_270" fill="#F19F78"/>
  <path id="svg_271" fill="#F7A274"/>
  <path id="svg_272" fill="#F8A277"/>
  <path id="svg_273" fill="#FAA076"/>
  <path id="svg_274" fill="#FDA478"/>
  <path id="svg_275" fill="#FAA379"/>
  <path id="svg_276" fill="#F49F74"/>
  <path id="svg_277" fill="#F5A279"/>
  <path id="svg_278" fill="#F8A176"/>
  <path id="svg_279" fill="#FCA477"/>
  <path id="svg_280" fill="#FAA277"/>
  <path id="svg_281" fill="#FCA377"/>
  <path id="svg_282" fill="#FDA377"/>
  <path id="svg_283" fill="#E6976F"/>
  <path id="svg_284" fill="#F49F76"/>
  <path id="svg_285" fill="#FBA278"/>
  <path id="svg_286" fill="#F9A477"/>
  <path id="svg_287" fill="#FDA478"/>
  <path id="svg_288" fill="#FBA376"/>
  <path id="svg_289" fill="#FAA27A"/>
  <path id="svg_290" fill="#FAA377"/>
  <path id="svg_291" fill="#F6A176"/>
  <path id="svg_292" fill="#F69F74"/>
  <path id="svg_293" fill="#F4A57A"/>
  <path id="svg_294" fill="#F9A47A"/>
  <path id="svg_295" fill="#F9A277"/>
  <path id="svg_296" fill="#FCA278"/>
  <path id="svg_297" fill="#EE9F77"/>
  <path id="svg_298" fill="#F89E72"/>
  <path id="svg_299" fill="#F5A478"/>
  <path id="svg_300" fill="#F8A377"/>
  <path id="svg_301" fill="#F5A276"/>
  <path id="svg_302" fill="#F8A276"/>
  <path id="svg_303" fill="#FCA174"/>
  <path id="svg_304" fill="#F7A377"/>
  <path id="svg_305" fill="#F9A377"/>
  <path id="svg_306" fill="#F49F77"/>
  <path id="svg_307" fill="#F9A276"/>
  <path id="svg_308" fill="#F9A276"/>
  <path id="svg_309" fill="#F9A178"/>
  <path id="svg_310" fill="#ED9D73"/>
  <path id="svg_311" fill="#FBA279"/>
  <path id="svg_312" fill="#FDA378"/>
  <path id="svg_313" fill="#FBA276"/>
  <path id="svg_314" fill="#FCA279"/>
  <path id="svg_315" fill="#FCA276"/>
  <path id="svg_316" fill="#FBA277"/>
  <path id="svg_317" fill="#F6A178"/>
  <path id="svg_318" fill="#F7A174"/>
  <path id="svg_319" fill="#FBA479"/>
  <path id="svg_320" fill="#FAA37A"/>
  <path id="svg_321" fill="#EF9F72"/>
  <path id="svg_322" fill="#F5A177"/>
  <path id="svg_323" fill="#F7A175"/>
  <path id="svg_324" fill="#E79B71"/>
  <path id="svg_325" fill="#FDA377"/>
  <path id="svg_326" fill="#FAA374"/>
  <path id="svg_327" fill="#F9A378"/>
  <path id="svg_328" fill="#FDA177"/>
  <path id="svg_329" fill="#F9A478"/>
  <path id="svg_330" fill="#F6A37A"/>
  <path id="svg_331" fill="#EA986E"/>
  <path id="svg_332" fill="#F9A178"/>
  <path id="svg_333" fill="#F29F76"/>
  <path id="svg_334" fill="#F49F76"/>
  <path id="svg_335" fill="#EE9D72"/>
  <path id="svg_336" fill="#EA9870"/>
 </g>
</svg>